<mxfile host="app.diagrams.net" modified="2024-06-11T10:50:34.245Z" agent="Mozilla/5.0 (Windows NT 10.0; Win64; x64) AppleWebKit/537.36 (KHTML, like Gecko) Chrome/125.0.0.0 Safari/537.36 Edg/125.0.0.0" etag="Ol-3n_UGxcTcNUzWAvB6" version="24.5.2" type="github">
  <diagram name="Page-1" id="4nZWHlruCjEXOxrYvCC1">
    <mxGraphModel dx="1836" dy="459" grid="1" gridSize="10" guides="1" tooltips="1" connect="1" arrows="1" fold="1" page="1" pageScale="1" pageWidth="850" pageHeight="1100" math="0" shadow="0">
      <root>
        <mxCell id="0" />
        <mxCell id="1" parent="0" />
        <mxCell id="3VkYzJ0TTYjZr1VSYqyL-1" style="edgeStyle=entityRelationEdgeStyle;rounded=0;orthogonalLoop=1;jettySize=auto;html=1;exitX=1;exitY=0.75;exitDx=0;exitDy=0;entryX=0;entryY=0.75;entryDx=0;entryDy=0;flowAnimation=1;dashed=1;strokeWidth=2;strokeColor=#080808;" edge="1" parent="1">
          <mxGeometry relative="1" as="geometry">
            <mxPoint x="210" y="357" as="sourcePoint" />
            <mxPoint x="400" y="357" as="targetPoint" />
          </mxGeometry>
        </mxCell>
        <mxCell id="3VkYzJ0TTYjZr1VSYqyL-2" value="Shared Account" style="points=[[0,0],[0.25,0],[0.5,0],[0.75,0],[1,0],[1,0.25],[1,0.5],[1,0.75],[1,1],[0.75,1],[0.5,1],[0.25,1],[0,1],[0,0.75],[0,0.5],[0,0.25]];outlineConnect=0;gradientColor=none;html=1;whiteSpace=wrap;fontSize=12;fontStyle=0;container=1;pointerEvents=0;collapsible=0;recursiveResize=0;shape=mxgraph.aws4.group;grIcon=mxgraph.aws4.group_aws_cloud_alt;strokeColor=#232F3E;fillColor=none;verticalAlign=top;align=left;spacingLeft=30;fontColor=#232F3E;dashed=0;" vertex="1" parent="1">
          <mxGeometry x="-80" y="113" width="290" height="330" as="geometry" />
        </mxCell>
        <mxCell id="3VkYzJ0TTYjZr1VSYqyL-3" value="EC2 instance&amp;nbsp;" style="points=[[0,0],[0.25,0],[0.5,0],[0.75,0],[1,0],[1,0.25],[1,0.5],[1,0.75],[1,1],[0.75,1],[0.5,1],[0.25,1],[0,1],[0,0.75],[0,0.5],[0,0.25]];outlineConnect=0;gradientColor=none;html=1;whiteSpace=wrap;fontSize=12;fontStyle=0;container=1;pointerEvents=0;collapsible=0;recursiveResize=0;shape=mxgraph.aws4.group;grIcon=mxgraph.aws4.group_ec2_instance_contents;strokeColor=#D86613;fillColor=none;verticalAlign=top;align=left;spacingLeft=30;fontColor=#D86613;dashed=0;" vertex="1" parent="3VkYzJ0TTYjZr1VSYqyL-2">
          <mxGeometry x="50" y="51.5" width="200" height="255" as="geometry" />
        </mxCell>
        <mxCell id="3VkYzJ0TTYjZr1VSYqyL-4" style="edgeStyle=none;rounded=0;orthogonalLoop=1;jettySize=auto;html=1;exitX=0.5;exitY=1;exitDx=0;exitDy=0;entryX=0;entryY=0;entryDx=0;entryDy=0;flowAnimation=1;dashed=1;strokeWidth=2;strokeColor=#080808;" edge="1" parent="3VkYzJ0TTYjZr1VSYqyL-3" source="3VkYzJ0TTYjZr1VSYqyL-5" target="3VkYzJ0TTYjZr1VSYqyL-12">
          <mxGeometry relative="1" as="geometry" />
        </mxCell>
        <mxCell id="3VkYzJ0TTYjZr1VSYqyL-5" value="" style="html=1;overflow=block;blockSpacing=1;whiteSpace=wrap;shape=image;fontSize=13;spacing=0;strokeColor=none;strokeOpacity=100;rounded=1;absoluteArcSize=1;arcSize=9;strokeWidth=0;image=https://images.lucid.app/images/67fac8ff-3480-4359-ab33-45908d534b9d/content;imageAspect=0;lucidId=hB5zaYPyJRlV;" vertex="1" parent="3VkYzJ0TTYjZr1VSYqyL-3">
          <mxGeometry x="20" y="48" width="60" height="42" as="geometry" />
        </mxCell>
        <mxCell id="3VkYzJ0TTYjZr1VSYqyL-6" style="edgeStyle=none;rounded=0;orthogonalLoop=1;jettySize=auto;html=1;exitX=0;exitY=0.25;exitDx=0;exitDy=0;exitPerimeter=0;entryX=0.75;entryY=1;entryDx=0;entryDy=0;flowAnimation=1;dashed=1;strokeWidth=2;strokeColor=#080808;" edge="1" parent="3VkYzJ0TTYjZr1VSYqyL-3" source="3VkYzJ0TTYjZr1VSYqyL-7" target="3VkYzJ0TTYjZr1VSYqyL-12">
          <mxGeometry relative="1" as="geometry" />
        </mxCell>
        <mxCell id="3VkYzJ0TTYjZr1VSYqyL-7" value="Python (boto)" style="html=1;overflow=block;blockSpacing=1;whiteSpace=wrap;shape=mxgraph.aws3.android;labelPosition=center;verticalLabelPosition=bottom;align=center;verticalAlign=top;pointerEvents=1;fontSize=16.7;fontColor=#3a414a;spacing=3.8;strokeColor=#282c33;strokeOpacity=100;rounded=1;absoluteArcSize=1;arcSize=9;fillColor=#ffd44f;strokeWidth=1.5;lucidId=bu5zCEn1mg.A;" vertex="1" parent="3VkYzJ0TTYjZr1VSYqyL-3">
          <mxGeometry x="140" y="182.82" width="52" height="32.37" as="geometry" />
        </mxCell>
        <mxCell id="3VkYzJ0TTYjZr1VSYqyL-8" style="edgeStyle=none;rounded=0;orthogonalLoop=1;jettySize=auto;html=1;exitX=0.25;exitY=1;exitDx=0;exitDy=0;exitPerimeter=0;entryX=0.75;entryY=0;entryDx=0;entryDy=0;flowAnimation=1;dashed=1;strokeWidth=2;strokeColor=#080808;" edge="1" parent="3VkYzJ0TTYjZr1VSYqyL-3" source="3VkYzJ0TTYjZr1VSYqyL-9" target="3VkYzJ0TTYjZr1VSYqyL-12">
          <mxGeometry relative="1" as="geometry" />
        </mxCell>
        <mxCell id="3VkYzJ0TTYjZr1VSYqyL-9" value="" style="sketch=0;points=[[0,0,0],[0.25,0,0],[0.5,0,0],[0.75,0,0],[1,0,0],[0,1,0],[0.25,1,0],[0.5,1,0],[0.75,1,0],[1,1,0],[0,0.25,0],[0,0.5,0],[0,0.75,0],[1,0.25,0],[1,0.5,0],[1,0.75,0]];outlineConnect=0;fontColor=#232F3E;fillColor=#7AA116;strokeColor=#ffffff;dashed=0;verticalLabelPosition=bottom;verticalAlign=top;align=center;html=1;fontSize=12;fontStyle=0;aspect=fixed;shape=mxgraph.aws4.resourceIcon;resIcon=mxgraph.aws4.s3;" vertex="1" parent="3VkYzJ0TTYjZr1VSYqyL-3">
          <mxGeometry x="140" y="48" width="42" height="42" as="geometry" />
        </mxCell>
        <mxCell id="3VkYzJ0TTYjZr1VSYqyL-10" style="edgeStyle=none;rounded=0;orthogonalLoop=1;jettySize=auto;html=1;exitX=0.855;exitY=0.145;exitDx=0;exitDy=0;exitPerimeter=0;entryX=0.25;entryY=1;entryDx=0;entryDy=0;flowAnimation=1;dashed=1;strokeWidth=2;strokeColor=#080808;" edge="1" parent="3VkYzJ0TTYjZr1VSYqyL-3" source="3VkYzJ0TTYjZr1VSYqyL-11" target="3VkYzJ0TTYjZr1VSYqyL-12">
          <mxGeometry relative="1" as="geometry" />
        </mxCell>
        <mxCell id="3VkYzJ0TTYjZr1VSYqyL-11" value="" style="verticalLabelPosition=bottom;html=1;verticalAlign=top;align=center;strokeColor=none;fillColor=#00BEF2;shape=mxgraph.azure.github_code;pointerEvents=1;" vertex="1" parent="3VkYzJ0TTYjZr1VSYqyL-3">
          <mxGeometry x="20" y="182.82" width="50" height="50" as="geometry" />
        </mxCell>
        <mxCell id="3VkYzJ0TTYjZr1VSYqyL-12" value="" style="shape=image;verticalLabelPosition=bottom;labelBackgroundColor=default;verticalAlign=top;aspect=fixed;imageAspect=0;image=data:image/png,iVBORw0KGgoAAAANSUhEUgAAAL4AAACeCAYAAACM2LCrAAAAAXNSR0IArs4c6QAAAARnQU1BAACxjwv8YQUAAAAJcEhZcwAADsMAAA7DAcdvqGQAAIVVSURBVHhe7b0HoB5HdfZ/3n77Ve/VVnGTbbkbG3cwzaaZUBJCIPSWhC+EhPwTAgkhphMgXwgBgrEBAwEMxjYY24AxxbjJvUqW1cvt/a3/53dm5xbpSpbkeyXlC+dqtfvuzs6cOfPMmXOmbaom6u3rtINGtXBKpdNWrVSsWCpZNpuxarXqRzqVtorOuVzWyuWKFQoFE4u6n/KzpcL7h4JKpbLzkMlkrFQsWlp5IDvxHpnLZXPiMTDJ/7WY4YNMKfEwNDgkOafEZ+A3i0yVB3iFq1w2a+mM8uAsBj5Tkn+tVvXrg0UuV8pefFXKZefd8aF78Mq5kM972MCq/n8GONi0aYulk+uDTwnzZLRarQn8WVWEqpUrAVwUVl1dAD04cgA9g8xOCImXsioqlFNBVKqVwJ9+Z1VA+XwB5BDQj0MFeiclXZZiKUu+yBYgAfoqoBaPefHPPfgP/AY6WKAP6QZCYvDKvYyUINcllzMKJe04gII8dUwADg6+xh9NygMan9pO4YSMpfzaHx5mRFkVpTnBNpqRG4CH1gl2A8eHB9/wh5ZHkWTVCkWAeyXwyhnRc2j4hZ/AB9dBrhBAr0kRIlcsAen+hHfRBAAeOkQaPwjd8+KaB9MgCIICyuX0G9JzMn2Y4MgpLbMBfuGdQkPre4U9jHiMhObGtIG/cjmYk/mctDwVNkj2sCHMWG+BdEaWyNWVibgMLb24nWCGD63GjwRwPGMxd4chkkbTML8Hh1I12elCRDVd1lnX1ayVMjUbyspuB+AVVcByMAfK2SErZ4pWSdesUCromWzklPwngSddzXscNf0+/AiBHpxyP7Q2/mgaBhEZP8xBDx1E0EO1VE1Alr2u5r+UzlklpVaxlrVMVefyLCun8jaY7/eDa+6lK3XSnvJDFLaUltZXa1VRhTg8QQ8d3HI/PID/e9onkm4XkGUDp8qWqZUtJww3lXssXxFoqvV+cM29XCWlMFWFrajSpF3jm1VCRL+n3wP/fwJJ4ctkybnZkqsK9NYvu3hQhZe2AWn5jmrJ1nUO2GM7e2z7UJ/fE+IVZkhh+yyr57yblYlEXL8nZHo42Pi/p71SsPGl6QPUdaNkg6mp1jZYZz9ZY3bXmnbb0d7ozmF9YZsdvbzeXnxGqy2YWrTGdLfVZBJVrV4WmvwEtQCYTv+bCRv/98D/H0DAtJKuyqbPuvYuyY5f391sV9/YaWvW5awsk6YqMAN8MJ2SubNo6kZ7+flz7bRlKcvLNCqnCkkcYdzhfzPtl3M7XgcYo6zez4owk26ycByOBKfiLVF24VfSrXoYkfOYnAEyg3vySwX4vGWk6fPVZutN19mN95jd/2hVoGdcoSKTpmrpakXAlx0vR3hr5yy79tf9tqlr0DKVRkU45ObO5JUOMQd5jsbCYSXfUWW/z8CPo5BkJGQu5aOCg0NDVtWNos4MRB1u5LzyJ35L4neoWLRKpepn+M746GUS+DCgwAqAqVmpWPI++FKpomtGXctWqaZtw7Yhu/eRHkvl6kIRyhTyQ7/CkbZBhdu4o2prN/TqvYweV4nVzaaJoZBWlB1lPzQ46CPxjLpWKsnUg4lK7pmS+GSKCedKpbIfwPcMSsw+9yPMo2BODZkjokw2GyI+zAi5wzo8MqgD0CkUBsrIS8iDBz0MKAAeOcIX0wuotDpZNi/QZtQCiNm29jrrHEhZn8yePVGtkLOiNdn2HRkrSwL05dMbFCQyEYRUaenDJdMMmGuDMoHiHJvDhVDcyJNpJtBekUoeXFvyl6CDiU9D0u48ATx+XwEZaj6UFHkNFHh2zS5eGQ5ndDCTyXrBwHOc9DZRMHjmpBZUmjLyy4gr/MJjJp3RYwpOxadzhQEslZ8U+R6ppEIuK0y/fGFVIX+fq2dGlHW4Qt5FtUhDQ2o5BXAmvIX7YEGMUR6HQrhKF95C+gG3zAFDpsxVYnaAl38IPT4540leucacgaqqNZg5kfKFgoLRkELh/4NN8BdB7TnXqVSS/SvtCa/DE8r0fHhaBKRwh44oGFrPoDlLMmtokQA/LRQEiDJZFZObKGoNlIdCbtBy6ZLl9mK2FGiZbdBmzlAFUuQpR0OIY/+Id0I68MhsT37DX9TomI0RZEw1IFzyykEmGOQseYpPfE+OAZlg8EarxIxgrvcKfG9yFXBQLw4M6GX9prlAhlFb+hwLnfm9/0KdWIJftBD8+pRcBnsSPpEIWtTnBokCv4eOIm+AHNuYs1cC+HUQybwRvxxoarVXAj1NdNXmzzdbPLfJ6hxh41NGTUJzoWSzZpYsy3uqJClvIvY/3y5D8UYLOigcDAwMjMhPZ289dRlbqUMHAxIOpjg4gE/8jeDHJUwhMx0J8CWUUX8QAaktOFgUBBmkhpMxmrV8ojWxm7Gf+Dt4FPkMB3mCX/hDu2Nrcsb84mDSU8g8lTYKIJwmgtI1elOQAH0rzDINGpqUgGwV0ADZFE6m+OAefGBvVkqSZZiHnpFMa9mMFeoylmVeDjZ8Fc2V8/drirua6bY5zWU7+7icwN3v0xYoRvmyVsGcUbrcq6u12UlHpmzZ3BYxSDwFhRGPbvKMTy5VlXWUbbyCkJtPyea5Dlp9pmLTItHiJ6HE68Gw60f4G33tRav/HAfi1XEgxc1UZ/gMfl2A/LDGZ3owL5Apagm22+DQoAekeeAZ2p/MZgG90ju4YA8EfxSCT2cOOVXtHnItT2bJIHwSriIjl4rKzESXzyRRLQE0UAfiGVWELFMKhOucgJuRbZmqDFo2hcHdJV57pY3oVQpvlMsClZCbqhWtITdkOStYrdRilVqTlcV6OTeg/LBYQ+BVPvLlIXvW0WaXPX+21eVwgktKFVDrYUpVpDZkp62s2cvOn2vT6pVGSj5OTS2z0tuTIBw4yXXAQjC1ijIX0ZyDg/AA4IPy8G5WYQMscJ9ycNpzEhNKJEEHgM/bT8BOqwkO3HQUb9FcBAeAHmxEzCQDWF3D9ju1d2BAmkSAAUi+AooHegEbtFCoS2pNFNPBpQj8QZkyNK00sxSU99CoKcb0Gi4cZRz+g106ecTEMLR+VgDEFElEa5VM6HWpCtilwZrVFZp0rfsCeFUHbLmcBUhVDVWYtIAsrQ7AMhQOIPaYdOa9Jl2zSq1PaQqUqXp7cGfV7r6zaJs2tHi6rVM32bGrUvbsZQssn+qwnCpbpdYgedRbVmBmspvjfxeKwAfDyJbyzhfyrgABDM4hsg2EbNX6u2mTGQv8g0FKyhWbyhmll8upzFXWrD2gIwB/rk44jTY9rWt9fX3yMgNYmwPwu3s6vImidjNn21/QbyJ34CBkmTyAC6840CRnNJaCmFaZ8IP/hptS+uTplmTVE04s4amQVNwgBAFRmp6VXJPNqyDgADW6DPVXTQFeFYCOVKUord9n1tdh5b52aX01wwPtMmNwuFA09VZSlqrpnGUbpprVz7RUoVHglPkghDLtGDMKE2pQlaQmzV+QRk+7iSl7utKoSiPbW+lQ2QuKp5DW/VS/4peMVGZF4hKPeZlVyNFbhmGKsgn3XGkkWECxkC20v8ftSk/xORbCQhF/3eObXBmHdHTSmeTQ6pCv4NNNeIEvCPO2IFxQEVCGw72PSSTDwN+5c6tnxAtNEbom1W/sYlLhnZgg74Ykw/+TSc7sqGQoFAbMYMP7jCkkMYa/Ab80b8PZG8XsZJtkWfFRUQWTVe6gyvhIqlobgX2gfaOVO5+0zMAGK/VtkgaW+SizKC2AovHR5zW9i7lUFWArmTpLNc63/PRjzFqW2lBuup4VlMaQFXNqKWSv5yuyWSssy6Q166YN8PchbyV0x3imbDMducgj8ZSXMmDOj36EshS5yaIfgIcWHoWBLAE4ZgTaFK0Occ//FB65B6lOnmzBHLz59fD/4lU80gLxa7RpGy0A1hETLlLgd8T3GJ6r09G5w19moTRg8gj0soNdAUNPQ2DEoxuJcxJJglfmSDgIPlRK7DiATjNH19lwRSVziXhGKDK66/2JJUwI5skPyJZvzFatfmiLpbs2WNf6m63Sv8MKclLz4jcjYFeragUKtAiyP6tlF6qDX3AVnL0SVTND1q/4io3LrG7usy03daVVcvUCME60bNUq7wvU+p3G+RXCmasDhd4b7rFAJfStl7J0PUtO+p1SONoPytltX5kvvsBbYMeWp4Uv6zcdGMgYTRrGEWB1cuW4K1HJKH96vTBXMQvhgRYI/vkdKif5DDgB5AGryid4TSBAXBEfw8CPGj/nXX2hRoe3hk/+X3gZCv9PPCVcitx2F/Cj/U6SZAyNRCg8dbQR187NMKOTR27SSJO76eESDd1iUsBSqNLa/R1mHQ9bdfvdOj8pM2VQCoWpwTK78gKQKmxRoMQsyqjwZFMkJpLi0pG03u4Y03aVZDINStvnWudYdfa5VlMrUM1O1XMppTQtQK/VDbWQuAOdCkSXpTvMAntWvkVGlasokyeneEryCRSrQCSeo9ZU+lGesIL5SIuEfT9sJvq/hLnJJpIZLlRambSPE9Aaed+87tPBQqUkEOD3sQP9hVeens9h4GPje5Pihfn0L04mhf5tuiXliKlwyKkXjgQAxcEnBBLo4PFbljmREzoRcTktwYvXbEUg03W2RybNpjtscOPtVp/qtpps7kKuIYhU4YOmxVamg5Oy9Qf7SIJrdooNzDzZCgvOc1+gIpngVONQhyInfl2Bap1zRaXT3WGVhx63ymDRKgvmWmr5EZbOqoKp0iFfeKO7GqcVn2lkVwtVu/1hbyKJrChxkgfcmDWcXW66D/A50+rDKyZvoH3HwWE3LTkMkoTtRtBGsQuKrjTyRTOMZooC2J/MTgSxXhXbGs1fyaCVZSqUUlbfvdl2Pnmt5Qbvt8LgkFUGVBiqDIWGBuewJrsb84I2AwrA3w9SJDnFUZbmHmw+xbIrnmvF1kVqMGaIh+4kEHGO2LFNpSGrfutmS2/Zrl81G2httt4zj7W6Y1daf/+Ay5W9aoaKCoe5yG86Bhz4IY5DSdEUo0ICcsocMxfmqKg+RUJ8Av79pd2mJe+fFjpQisUejsA3WkgarFwa8cxdo9NXTEYLVldfH8YPuDuc2YPBbySZKOU6nfplZgxatShTYFAtU9eDVln335be+ZAVhkpWUMXM16Uc9GhinE1MI++W5Owx7R+lZMZI/8n+z1m+/3YbfPway7RtkrkVQI+mx8HlgOjxsa07xFO7VepUWRpLVhvsscr6DTbUK/NIAEfwtKKAqCCzBlt/hA6CXEfhleLkgOgmZeDUcSCQ07JTGek6LahFahAO4rygEMeB8ToG+AfNjkuIbjMcWJreMJ1VWlQZxbnCYY2ZCt2SVJIRjRZyffD4RQtWytI6pX41vX2WKg5avm+LFTf+zPo6f2X1tLjlaVa2equx3ltgrchWR9u7ppep477TAVBNNn0xXW/d+TrBv84aux+z8pPXWb53o5s6aaUD9EeqleRSpS0oWQWZDlWtu6JwOIcClgNJGh6tiryDU8hb8Ogp8t+k0misYdLSJe1nlf3IuAwDkKGF5w2uyR7vxr8D5XUM8A8ORWbV+KsAwiBD1TUOwMbUIZvYbmijAwXLZFBV2r5Sqpe502BN+R3Wu+lmy22/3zK1ZrVGqpwF+pTpcVD5yKlE87rW51CW4+HZ3y8iBrWCVlS8dfTeW673ISs/+D3LlPrcGfaWxcNCAs2caWZz51h/WT5TXYulc802tHCepaTtCYdsvdPgMCFAjtbHvEXxYQFA/I69NhNJh8DGDxngf7KGxsd5YdDBnSrdc20vwNMiuD2//0iZcMIMrFqfDQ1MkYM7ZJmeG61v7U9sdn+vlTLzxHSbHMse1Q4BqqIDR9Yd2vD2yP8juKdKBErOHj60am52ekCddR9gZ6XFq+miFVMyo2pZy6Xabfv8t9jURSdYLdei1kYAkh9Cz06d4il1tFvqnketit+xeJ5Vly2SgpGZk2hQTEZPmXQSFg4WAfIRnRZ68Gj5Y9cp5R47MgibCGNC6LBwbn0inGx7chtnTh6uxEZOg5lBa2h7wrL3XWnF3KAVxHtZfylp9zC9APDqfyrxcFnxOylsGlmmWerKfH+c0P1I61fxOTfMydFjmg3JhuXlKcLTL693MtLSKGr67ZmUVixMs8ryV1q+ZbU/L+V6LFNu1VtDShPTrORxs6tahoUsehLY4v+RqndoKXDBtBnGj8Kc+SCvwOfE0mHTq4N2GymMw5kEOmn7/LprrLrptw52tVmy50N7EIAf4ARkUzJBvATTOeG7YLUs2jZrpZSMFr1alO1dKtN1GzQ9szDTMmXkISgSpmEMWbXM3HzZvJhO0ogFKUT5opYvsGcnlmq9Dcxbadkj3mhlZnWq8shwVDr0JAXyNgTGdNQXVXlUC3G0qYyyhPzwKc+HUPy09gnSnW9vjeB5EugwAb5yR4YnKZMTSjIj8h3bLPPAZ61U6bW6kvRqhi35VCHcnhfJEQ3Tj6W1MjJ5snlZ5nnrK2esd8iso69ovYNoefkKeu5aX2+mpY2z0nZ0ZuV0ncnULO+dFxWZgwOWq8gUKA1YZaDbUuVeX3ieTVetLjdT2r7OCse+0VIzF1hjuseGUq2WYbanUmFgi1FeNqKq6MwSRObnZ+VzU125B/Dh/VAC3yHgAoTc0IP78HOC6bDrxz/cKW39ll97q2U3fNcGhNB6Ab+UCYCniARd4b5g1UydlWo56y7VWd9QzfqkZQcqaPo6aX4BnhFnHxVltDQxPbCLpKXVBtBW+B/nvJr9vMyUgkyXrNKq0avU32Hl/m452qoQahgGCr32eNNzbEf61bZ6WdVWLpDpVaB1qqjK0RKJd+YBqTIM5UueXpzaEA8lJXJO/p+n3wN/Pylb6rS6h75s1vmEDQopGUZN5WSWZcqk0gJzrtF6SxlfCN4jQPbXmrwimCpCJVXQQXdk1oqlPuvu6bSenj7rH5ApIzOG6SKNjY02rXWaNTU3SjXL0QOMOP6qZGk0dTZljbJ1mnVky0Xr7+60dM86G+jfZu19q+03959qc6aU7cw5m21hw1TLNqiy1ddsqCln5emtlp8101qap1o1m7FBmUmqt+I/jD67Iz7ilPw/Tb8H/n5SumebNdzzIetn8Er2QjXTJ3NHurhhpvRq1nZ0D1nHQMaGsi0CV7OVZNPXpNV7Zd48+viT9sCDj9k9995v69dvt+5e1QzpdI4qPUC6ygp47HfZ2lxvJ64+2o4/brmtOn6lzZ8/R/UgTDAjNKO4s1pbbVpTs9Vt77PcvWstf3+vtde6ba3NsFa1MFZot5b6gk1vKviorBiyqirnxiPnWePKI6zx6CVWbG1wEygn4Aez6PfAfxqKjXsgmuWRX4eb8FgO6KpTwKFPQyQWGe7hdo4+QBU+U3ddA+pJHsN3HGra+gvrW/s9Kwz16FezlXM52cxN1imwtvVUbKA2xSr5mdZfztmW7e320Poddufd99qaNffZzh3t3m0bwI71Or6cvPs2cfIYXGIawZJFC+y8k4+xY4892hbMnW2zm5osP1gyxoZbpky1aWpNUtt7rOvx7da1oVteMz6EfINs1RryKZunFqJQJ81fN6j8yqeQb9E7tdmqx6+w2jHLLD1tuuVlmpXVxFQkowJ96KoELHZBIuNLYzQlYTDSxbvz7wb7+Hk8tJSyTRuT+fgHCnyyS1fZ8CCTZzhcHi5EUw5TzpYK08GHBymAY137uKqAL1/S6lQJhBXry49fYE1rv2V9m26xPBO88rNsIJW19i6ztmqTFGqjDVQb7YlNXfaL39xpd62539Zt2GR9/YMuFo5Aewc+FPuwfaQy+Z1KV2QGtdqSWbPtwlNOs7OOO95m1DdZXaZiDU2NNrVFDm1fzXqfaLedj221Qmefzxoty/nOyJOdUkjbzLq81dhiGdMJ34IKMHOaFU9dYakTVlpduk6tjvwROdV1JRz2lFqv0Ee1dxJ/EjCDTsjZK6/fJd+6OqwwwUKUA9T4nhdlhn1KABIja75niQrrcBoNhCgKtteoqRAZJEGL0nWYFt8Nui7JbmamY018e1VQJWBO/HjUdO+nbKDrYcunW6w/Nc02dPRZqTrV+hoWW1tXv/3wxz+3G26+1ba4dkdODMgw9D4aOAH44RhLUYHU1YXlncw1515FgKqpEhQk52JPj7VkcrZi3kJ72xveYMfMn63aqnfUMsybPtcKgznrk/bf+dt7LS1zitT6maKsKj4nlbMZrbpTIG0xSDYBf33ehmRWtVxwuvU11amNVGjJC2WQE+9lLp6GGHllxufoqRDMqdlbBT+oJDaYm0RF3PDUhqcDvtfZYaCPqby6IKNMM6Cmk8kwRfTQZxQ+48odmm7f5UAFmFLh5FVBc/0DlmrrstrGHTYw2GeFxnqrmz/X+pfMso6mvE0ZHM6lKFwjsPq7/lkVvN2GSq32ZGfKBvONclRn2u8e32rf+t73bc0DD9ngkNAUX9+t/gBDCBmNyAlwO1ASLe9gZyqHAMQZGz3Pooty2QaLYQUa1CAT5qXnXGiXXXyxLWhqseZcgzVNmylgKz+dAwL/A5be2mNl8V5Sy4D/0FIo2YyWessWqtLmYS1v3aDKTZVi+6oFlnvBWWZysLNy2h0sY3gNKfM/8uCu3xG/zJfnB/yyoCnO7x+dz4NNtPOjOeeaiZBbtmyzzD+IiqVBfzguKTQFESNhMhHza5hiQGGxppFeB2bPeU6DbA4pOb9JIZTY6Ut8sQiEjyY0yDYZvHON2f2PWWH9VsvtbLfClh1W2bjdiv39Nm36dLfdR2gkQ+ltt1vvYM22dMmhrZ9jW/qqds2P77YvXXm1Pb5uvZXQ7FHCTvyIx2jQB4JPgM7hU4IFdLQ8Z6ZtAK7ha+WFKcS8Te8jW+QU9fxRpfvkunU2Q7b+jBkyv1Q50moxsvVZa5oyxYqDQ1buGfAuTXZs6Na75WLZGtNUJv3Qv7D5L2MUvdYnE6kwe4ZPbeBuKU07CP+BhsEk3gMWWOAdyj/Or2GU2AONvHYIKCSOjMP+owwKMoKds57unr0DHxwD7gjosLA3aHhuuXZSODT96HCHmtzWVIYxbZg1UyvJJpfJ0aBz7933W/NjT1m+p1/gKdlQji7JkmWHdN3Rw0bDVl08L4kJGslQdctdtmVnr1Vy821zv9l/Xv1d+9ENd1hnZ7fkovxT2yhwXfPHZXh/lFCSnhP4Q8MzWQw5AvIyoJUcAX+YnRrkn9LzAZ9VGeJiiSI2eqoq8Cm6ze077K6H77NCc6Mtmb9ITkrRmmWyVBvy1jBtivXL9MoOsItG1epL7D5QtcHqgDUrjZziKWfTNlQQ8JV+444htWJqDZbNsXI+bc1lFto4K8OEsqNCBqCH1skXnsMbmEiyTCU5lBT4k1Ovyo+i9g0IxF9vb18EPkIRkyEfXijxoDDYYiKuyyTTAJyIKBzueUZ5+aDkk0QCr86upxl4hajZPvFNmeQewzWNxbQN1qsQt263ujvvta5avzuy/oG0sky0Wt5YXVUoy2TrGbTiEfMsLdAUVQtYaIXDV5a23fLYr6yj3Gqb+ursE/92tf3q9oesu6/LlQGg8orvhBnANRUw/Obsh/6ihkd+gDz6HhCAggKAkjwxgcvnM/GMmOmT4qB7Mzjo3Sqjex981PKFBps3f6FlBqWpW5qt3JCzmXNmWc+ONkv1s4ZZLYo0fKmSU5lKJvUFVaN+y5Uy1sd8CCmB/NZ2q05rsvKc2eI2pxZG6YoX/DkW+zsW4ET55gwGWAIY83jwyFP3q6hzHbf6A7PRR3KZJUWDCdbX2y+5JeSvJ//FJpbA2PFhIbde92Y344MtrHdlghmRHkwK2RR5Bv3C/2dqM4StSeaY3gx4qKC1ejlc0l7Fnl6zARW+ND8KOizU1jtCdzVT9cXbg9VB6+/rZ06YnGJpXT0vqRJt29lmA9kZtrG9bJ//z6/Z3fc96JpjmJ89EIIH5OzrAtC55oCC1gymTCykWCm4z+ZIvlGWgLYv1D80aN/6wffsxtt+bp2VIevr6vapCZX6nM1atcJSUxoUiiJn+kLKuqUktnT3qtIzdYJBMSk0tYxpKYS22++z3HZmnOJrCDg6HPDIXUCn0jGZDH7jrnoHjRLIiZVh+UeMUjk5fKYnWl5ydZ8DucbWlfD+li7DzmQhMt9FbUCaj9lyyiSFQAJEmPXFvRJUrGIHmRA4/wOUkD47Lwgg4pV7vu2IKoEvY1RBsSIqhSZTxnwuisBeX0ZI4aAZp3BZ/I3zJ2M6yZoi50Ln7t5e6+zvte2lKfbN626zOx9Yaz39OJkYNHunuKYAGcZrNDzL6GiVoKhoICoBQCcM93i2r8RszbaBXvvaNd+xW9b8zgbks5RUiftzyufcVmtdtsjSAgEVPi0noSQZdQ1VlD8BRXo/z30BvyzTd9b2buu+Y418hB7HAQcygR80vS/6V15iq085HDRKcEc54/BDYBMcRLlS/lRWeAQXblIKC0GctJROZCg4Vq7F9ZSAwYlVTakruD3KC7znhXFQQY/IxyYIOFiT6Zpe7Dhg6LERn1zTxQq3dFumAJ0wlm1qod/PMpIVFbqi3DNpiwXk3GNil+UK1igTwTdd0jtDg0Xr6OiUbCp25Xdvtlt+vcba8A8S8wZxuRZMQBCJ36PPABmCb+55+pIvcg78hsXTUNT+0fzhHA/KYzSFN0S6wIkfUsXdJvPro1/8vD3y1DqZYr0CeNUGCmlrWDrH6mdN9bKjOz9XwyHNWV+PWjrpkTQ9OSI+QFHf2Wu5tZusd/1G71FSQC+BOim92PsETuAzyOLgkMuTTCcZR7k5FiRLxIejzT26d7FMooaHxyDf8KJ3Z3b3tPvNojQ9K6HQNK7llQgFQ2Bs5+Hem5jqQaMREIU9VQRp8Ucrxc4A7BQAyHlOH3hcpEwXa97lpCZPZkuztHbfr2+39INrrb6oPDFaJfD66K1sn/ZGmSGrVlruWadYMUO/vllnW7vt2L7TfnDDdfbVL19lmzdvVHphi71IpAsoV6xYYUuXLnVZcm90RaBwkCmgcQWjMBHwseCQtZdDYvMTnoLj2SOPPGLr16/3uLg/mpBOkBC5EekHVebMI4+xv/zTt9oxK1dYc0Oj5aQk6nf22frb1liuc0jmnSqZzLy87rc0p2321Hr5RCzolhPYp5agqcF6z1hldaef7C1pnl0YlC+6VFkwsruJcxBwQRLiIVY2cAkWwK1vg6m842+44packR0VwKc9J/wxgOXObU9Pl5djcF7L7vl6oeigADkoAGymQ0GRBwASmzK64MgIzja8ktmwvaHCUkHFr4NHwZiPIldcWs+sML3B6joHmR8s04YmEYNHpr8KtbJqmaVOPdbS+ToBQO8pnZ1bd9j9a+6zK6+60jY8+aSa/gE9cfmG/3TQGmGXv+c977F580KP0JQpU7wSUgDY962trf67qanJn/E73uPc0tLi14QlDBPWmpub/fq0007z85o1a1wOVI5hckYC0Ln0J1zoRnt3p01taraj5iyyqQ1NVpTJU2rIWF06a8W2LpcTA3gMjtWqDEay6a7AxJz+XNpSKAdVmOyKpWHvSZU/6adlMvhuFw4aEjw45Cv0lB7lAuBD6ymTRpUgLF/F90TLB4VD+Y90rY4w2iNfzzV+Z9dOj8SbW2nTuANuEPAoIY+IdtIIEHkKSpuVWS5oZQBe4I09HX2TUGl+X6mjoGHgDIq87cpnyLS3CoonU1GFeWKDNT2ywXroG5/aaoXF8y21cLYqh7QFo7gS5tat223zps32pS99yW644Se2bds2jwdy+ZCG/sEfwJAOsWuuucbuuOMOfz7aZIl5cBNBL9EnT3MMoDs6OpIWitYgmEKxxeWdSy+91ObOnWtf+MIXkjJ5ekIyJbVaAP4LH/hnO3mxtL4qUylbs/r2ATmvD9rgpp0ODEau2dKwVuq2JfMFcGSc1Vlhiy31NnTZxVZctNiafKFM0YpqKfmAdG0ES5NCUUuziS2yiLJDBnGUmErgLSWtI4raQ0BRTrtiIWh8Yg5NqxKh+QL8UGhKdhXyvgn9wClWtgAsMg54yHjcdoT7ZNZ5dU0fhDGWt/H4BvQ6KU72k6wdtdC6XnKapV5+jmUvOMnKy+dZfz1TjGlF2PWhYr3SDPfdd5/dfffdtnPnTo9pDCk+1yriI/LNNny0Shzcj2bJ9OnT7d3vfre94x3vcNDrBbvkkkvsla98pX3gAx+wN7/5zdbAPjy6H9/hOh7x936Ryryzp9uu+vbVtrOr0x3AMk5JfcGmzpvtWp1eI7pLy97TJWe3Ry0hrafkmpOcUgOSfXeP2ktFRmVUtJMN+EiAmUw4wKUYGDDDHPf+eZdT6JfnuWt2FYgrIz8ijS8zB35dXX2w5dEwu714cMm7ypQpAA8AY/NGdxXOW33CK62SgwJe94ddvRN6IfDwpSmkG+nhyJRrVqejXgcJdnV1+SdkfnHrrbZ121ZPa1dCSWDiIHhaTMKEChuQQaXg+bHHHmt/93d/563CFVdc4S3XkiVL7A1veIN95zvfsX/97Gdt9uzZ9t73vtcWL17s78Y4DpS8vwiAKJ5bfnub3fv4QzZQUQukVmCALsopDZZtbXJtTwUtyczJssOwDP9MNo8K8oG/TElg7x0wJEVrObKAfvIp4ACgy7SVmeUtZ2JuI1da/mEc6Ngf8liIEAGNIIjrZyb4faOQzjDPugBAbsPpDKDiAnRfMK3f8On8UjD+RLSvrA5nSyaHd2vKj2Geum7SCgxl1LRjEiqtvr4+27hxo90vjY/mj44mB+kDYjcNE545AJArEJEXUnIsWrTIjjnmGPvyl79s27ezs5nZJz/1Kfv85z9vm7dssTa1Jt/73vfs9NNPd+cY2t+CHI9y0tykjx1//a0/s66BPq8M/aoA5eaCNc6eLrDLuZaSCf6bbH9Wiw2yQF2VRHJiHKDc0yMTB35GeJpIdLh561GHAkLZOQ4EeDQ8e3jSjY4dj7ankwXlNTIhcv9lFaqPvzj65V1/TzyRWdJAs5EBMk5TjNlFofM0gC3re53Xy/EbmQQXeTtwHjFp+nNVG5S96kPy0mR08RXKoTuRHqNvf/tb1t/f75uWAmrAjqbh7OaQDvjlWaQIfhxVCo8KdN1119nnPvc5++EPf+jgfvFLXuzxXvujH3lLdvbZZ9t/fvGL9pnPfMZ+/vOfh/y7Ito/iu9wzhXy3utSEB9Wl7f71z1mjz+5zsp9g/5sSI7ulHmzLKvrgvJTj4Ih78W09QN8tQqYu0xiq9JbQn8RPV1KglTCdO+JIf9wR5LnIFcpEnprVLwommi/03MDDqJZE+jAMDBx3O8zJQWqEz0yg7KJySRaJ2ieYDaELigqROIQ+msHDvRdiR0R8iz5U+EycMXglg9wiWhed+zYYY88/IgDlAro3aZUCAHdWyRdcx8eI/jhNdrn2Pjcj4X57W9/217zmtfY/PnzraW5xf5epk/U6pg3r3vd61QRrvV7Md/7S/Ed5IUmp5uXClxUpd7a0Wb3PnC/2aAUC3zreVoVgrn8pMeUiBpmjRzYoaLKQ9pW0Jfc4SVMj/Bv5eqPNbpRVhNB+G90WjgGVPY4+Jg0yM1NGQ8VWvywY/IzT/wQAD8QvKPtyBxmDEAHNGGqAc0YjnbQpJNhVaKxKGTXZDqqauZLqby0f0YF32833XyLCj5tnV3dNAYKEnyPCGy0Orxzz6dx5BjoY0icyWcy0Qo5Oat1OqRN5UxyfmrDervhhuvs2mt/aFu2bvEh9Ho5tNj5GzZu8H0hGxsb/GhoDNdNAmZ9PVuO7BsBYogtRDAVOLJS04DpvvVrbUCVXQaQL2Iv1+esbs50gU2gx4yQliezaP1yuRAG+NgoV+AT4nyqMpPj2NNH8PN0JoKoiD4YqQpGmSNjDnCAWRPGCwLgA+gT5fkMyLszD+Wa29gfi7kD2ENmGW2beLCPIW+qMbgYvUKQIU2mfG3ZvMU+8MEP2z33rLGHH3rAgV9fkGZUPUSLUygUQOgzZjJZsPM/9rGP2ctf/nLvKfHiAYReUGOJAiZlnmODx8q0K1Gx/AMdevyJT3zS/v3f/z15Mj7FloJzc32jFQXyQWlSKli6UrOl8xbYFf9wuc2XI024/JCAtq3bNvzyLsuWqfyB0rWizZyatynNAeRtF5xmzeecbelyxiqpkq/KapAvwDTniSD4ZYoM0kce2PgoxckaLB3uzjx0FEY3RzS8gAToxwHLhJPPOKQxl4bxfXDQdiXJuWI7tvRbd0e/CoNuxyAiWgHADY8UTgQ94AToNNcA+CUveYktW7bclh253I48YpkdyXmXY8XylfYyVZBTTz1Vv4/c7TkHcRwth/iolUfZn//FnzsP+0IR/HzAjy5qxgYi311yUre3h25ZqnqNSlWnfFAx5DRivvDBCwb8cHCZ0yOV5LM8q4x9oAFEhAv78E8QKT6mxQTAI9v4fd/Jo0MM/KCdMBuCWRN0rm6Gx5NK0toCP1N0KWyupX+tNJCyNXc8al0dfJaz30PSsGOOxS5WQATf0Y73pYWu3EN+aL1YGH7JJS+0Sy5NDl2/6EUvsIsvfo4tXLjAPvWpT9k///M/26rjj1cF0js6yLYfoTFyE4B095VIPyqNspoJxgtYdlnI5a0oc4Y+/bUytzyMgF5TmiVp7TymlEyjQDiwuq881QT8ItMUWptlOgXtD9Ejhhk0UeRlrnTZrhybPtybXDrEwIfGy+JkZzsQ5ei9E5geus6UG619Q80eWPOoDfT2CNjsPw8ggpjQ6IA9fPeVz/x4b3mghGWAjwO2cuVKO+/88+z888638847zy644AI755xz7Jxzz/FR2IULFtjXv/51u/xf/sVbCa809G6IfIqtGiS3gABpAub9Id6Av8gvTu5AuWjr5EvwjAEpNDiLUHLyQULDJo2rh9jxRdncgyiFaS1mrU0CvuDptTJ0BDCteWIp5nH0OV5PPB0GwD80FHomZE9KuGmZOb6jWDFva3672Yr0fNRKVpZ5E4RPi+CvOUWtCo2+hsLvlHddvv9v3m9/8zd/M3xmhPZDH/yQ3XnXnQ7K2267zd71rnfZC1/4QvuItP/yZcsSJx9bN8T3TAl+OGg56JPZtH2rV2XusYsKWp/uzLC9oAAhJx5nmEasX88yc2ZYmg2uJCtfkCLifcL+T6b/tcAHyDV6KazohYpr17HZbOdjgzI7VBFyFSuV2UseQ2csuJ+OUIYXX3yxz92JB6DnTAVgMItJXgD88cefkA3/Fz41gkrwissu8yafSCL4fTYqrRLApFXQv1mzZtprX/tH7m/sjRR05KxstLW1DXdT8seTjG/SyXXFitmi5WXHVNN1NpTps9qSZZbNFPRbckgqNeQfrfsfTP+LgU/TjcZnDhDdE1m7+/a1Vuulr7gsjcZASl0CjX0nd3hlJtxzzz3edz/6+MY3v2Hf//73beOGjQIyFU8vKPK+3l775je/abfeeqv92Z/9mX31q1+1mTNnuOnjI68lRi+DD0D4E45fZf/+hX+3yz96ufsbe6PR8OR1pmHQR892Kh4dTChiPkYdPjCRs4Fsyb/t1Ta92WpLF0kyGSuzDFNh3d/Ri75o538w/a8FfvDTKipEAFC1Um/Btm7oshxf704xGAWIgcZo6Dw94QDzbmdXl23YsGHkkG29aeMm27Rpkw+KRQI/0RzZsXOHXX311T7Se8UVX7OLLnqOO/5MT4aYunzZy1/urQcjvWES174RvgdULtN9KxqVrfBEJk9Fz/iOkUC+oa7Fti9bbdWm/ZfB/wQ6QOAHUQWKYgt//vuwldMIj+AgJa1eZQKv0LfzyaKV+/I+bSKTlrOnPGCOBHqaDAUROAEwumfPOOMMe9Ob3uSzLt/E8aY3+/WfvP71RhdmtyrGc597kdXVheWIEF15APOqq66y9/3VX9mFcoj/9m//1o444ghbvXq1/e3/97d24oknurl0/fU3+Dv7Szm1SBkVe5BCAABKIMvaBHyeTJeVKjPsJ9NOtc7sNB/senqKsSHX5Dx873CiyI9a0uTqAChkjoJyR0nOWtht4PDEPbzCZ9DIcvTKNNs4fAJ5tSzgywTok6aXLetbd8sJyLO2eB9odPFi6hD/7353u33lv/7LvvyVr9hXdeb4yn99xb52xRW2bt06e8c732kvfelLHcQsRInkxoTA8+hjj9mnPv1pnxKN87tgwQK76ac32Qc/+EF75NHHXMZ7Gvgaj+AJs6mxsclNKIelIonxVKXl+xmbqOTt1paj7b7iSlUCtX6SxZ4pYCDmn6nDPgKr+MDD4QV7cSMZMFbA+QCBj8TCYgqcLhYFhEW/h1dWIbHpReMz/ZzfpD++jI1BZRC4lYfu7SUrDzBuy1YqgN+ssak+iWXfid4TJtPNmjXbjjv2WDtq5UrX2L2y4zdv2mrbd+zwrtC77rzT3i9tTkX5zy99yefr+ESsbJjqDHja5YjSO/TZz37Wrr32WvcB4rqE/SXyTbyzZszw6QkAnkym5DiXGXwTFMoy3u+tP95urD/G2qQAsvUogD1VLknVa0/4Fb9lhvJjzg0PY0t2uBAVnwoJFp4G+AnjLiVI1jCZo5dBv8LompoNZZDVRE/XwzCpNMzjCAFeHwTSAW/M9ASYgI1P1guh0vCqDKWsDfbI8esbZODWCplmK+T5rmpdEu2+j8273a00VqxYbmef/Ww799zz7PTTz7ApU6Y6EJiLD1/whLnzD//wQbvya1faxz72ce/RiTJlBDvKH8eW+wyWcSvCiTj2RlEbx/C5fL3Nnzfb8oorw4Jb+BAQ2FnNavW2vm6RXVu/yrZWZtlAXb+1tCqAvxxjGEukz0RDZBTNQipYXljA3NufwbfJI/GeyDviAKnsHamR8aTmYtYwP5pBERYH0GyQUZ4T0q91dSgqOimHgk7+sJeleZj1NzgUdooD8LDmAHT7XoWGTTtYEPDRfEXZtHU2q3WJtTQ3ydFVYZJHxLSXPI0uX+KmBbz+uuvlhH5QwP5H+/jHP2Xr19OTQwsTzCgwy5mpGtjrf/d3f287d7bZ+Rec79MVWApI8Tiv+nNNlZgPrFF44Quebz1qRfYG/lAaSo9S1ouFXJ2tWLxIec9aOVWQbZK2dKlqnX1D9kh+jv37lAvsoewCK2ZTNqWYsvnNitsn8kVy6fkf6fqsSrWiyNkBJV75QyARC4eK3KSBG/HEtHJaJF/55s+eDvhe2CpIZYypw2TW7cOkcNFENJ/MTvSghzSj/BdqtmdUPHPNAgbKwEGjQFEbhU/gUPtxKJlvI/NHLTQblk1tnm6N+akKV5W5wyZMzOPxZCaUmLOPJodXen5+8pMfyxza5Ku03vD6NyjtJucdGcM70qUV+su//Ev70ze+0Z7/vOf5u+MS/Kp8VEh+rTpvTdmyrZh2rPWmq9bfsMOa+9uspTzLrsseY1c0PcseyC+RoVe2umqPqn+HtTbIuaXiU+4u4ET5KU3seW4BePbPhFgK6t2rIeghIa96YozyBrfud+gaPrFUwATXo4APt5HjcE0vA80ri74RMHejdmNuDYmM1G4ovn8waDSvyVlseKEkmWaVzugNbgMFftG2Uvf+DuZNpSSNLwxVSrpfzFuupkLPVGxKa4vekeaLyYxDCSaGKUrDvUesZyVN1yizOLNZVm8xXTmsr6X15My0AhbP33XX3T7FYe68uXJ8/9qXLbIxFBXk9NNPs89/7nOKK2N/+oY32JYtW0I64xDTCoYZ0blOPC6aPttSc3I2rThoU3uy9kjDQvvy1OPsmtQpttGWW155b0AYklfjTIG5tclKmUGXY2xB44E8IpDCWIJu6B+t0+STJxTOfkDh7NnWf7REYBY8wB+VE0XNNGcoQQNNsL/i12SGl0JNTjxhESAKq4uCPY8jEzMazuF6MskrmyhWNkBHTwJ7qjg/uu/2ZaKlmJKLxqQSu0RGkWt9vwq8owcG+4tq/hts8ezj5fhV9H5dKNi9mdOKBD6waV0zKjqSIm7eJX0ONDzygzcqJwS/QRsFfqkQyP6jH/2o3Xbbr+xP/uR19gevfKVd+uIX26tf/Rq7+ltX2z/+0z9ZR0eXtO+emcLi9tFVTFIFq8832wmrz7FC8xzbkJ9lvy0cbb/OrLafbchbL5xmu6zBdophXWdytvrIemuRs5srMfO06IfnzytBaPHJSz4f9gANMjx4RGouanhKShEcxH1To1yDc45jX+dlQFCw6vPx+/q7fEdZeiNY5cJ2fEQFkDAVvKnQfZoNXkbjDBey08HLNGniUFEQCB4W8DtCxcMJzDhw4JHCAWwj2h4KvLoyruX9g8iVrfX2o0+12/oHO2RLlGzGnHrLLeq2T3/rtZJmoz21aaP19HUhEH93V4pi+My/ftoefuhhe/jhh8MNEQIH1CgRls3BN4ClYAAMZ55Dq1ef6ItWLr/849KqyDxt06dPsff/7d8oXMo+evnl1tbervzuwbwZQyOVGq7nL1ihivNuO+ni14nfqu+c1jbYYj/85WbrLjXK3K9avibtnmuxfH+7/X9/0G7PXXWE9VT6jPXIrHf1rUiEBRQhPFOpafmVBU/nYBM8UPZgkp4azHFMcfgBx65cJATC1dc3eDnxbNOmUZ8CYkEIAYmEPQgBCzXIbWJd02RQe6jhgC9G4v8lBT+xRKS7C5PipNJRsylSVtoDJnikS5X1sIAJ8NPbROHEChogECj0YcvJy/Zbqq1gN35uwB66Y4tVs0M2ZUajpWf32C2P/JM9uWGbbd+x0zbt2Gbmu0rvTi4LnV/6kpfY857/PE+Xrr240xiCZz9S94XEJxWSF+ATfnkOv3Pnzra777nb/ukfP6y3Arj0tr3kJZfa7Dlz7T++8B8uFubGPy2lpYVd28nUyqtSnXGp/cFr32/LFy+3PoF8Z6XZNm4r2K9v77R+8SsjwFoklFImbzPTm+1Df7zDFi1eaV21srUk8oybriJneEO24CSU1D7wdEA0GgfhGm5Jj3JlAYsvPNc1/ocraOEYcxIF6avLXM7BtOT94U8BtXdsd1PAa3MSCeAiU6EZoxkJkfIssDFZGQ1EppzPSPrBTzJHBhCBb8Lk4NIzaWP6wYdrusg1veIZj1fMHObrFFMNlivusFv+b83uuandUvl+y9fnrWGW4p19r33lex+yoXLa1q7dKPD2JcLbnQAEsgIQpM81B/xC8T6tlMtZfPEcHgPAzc499xx71lnPsg/LlOGeb8yq+y+WmTN79tynXYE1hvRiSj4MvUZzliy0k5/9UrvsNX8b1tpKPO29dfarR4fsoS0ysSSLRmSaG7DeUp2duXyb/c0LKja9eYr1SvGlVeF9gYjeheCf33Ea9WQScsKXICXS4xoM4nciIyoBSgal4t3squxgwq0SAR8cc+1gStgdXoHlL5OZBDSAnwLihYAbQIXVyCUFP37hTzTRx0x6ZBQB+Op7gKR7ZJpmFn5xCmmZAD3Vw/dgIbOB+RDZbhTuC3YKKz+gOazCqpVk/vQr/kG1B8XFtnLJs5X3tM2eO895gY9diXu0lPEce2toieAPXgF4BDlhKBye4dxyJl/333+/zZgxw/5JwJ86daq3Yoibd/aXADMrzOpb5F80zrYznqWWKC8eakUbUOveOZSytt6SWiXxK1Hh+PXIuc3bDlsxfdAam+t9/510jR3fEj8HEj9UJjByMMi1u4TgstcfMkThYdbwFHMcObl1Ih6RLZUSuVEe0ZlV0DHkdwOYGZDK+AJnzhBlTC2K5GW+e7lPDilZNB7AYKQTv4N7LgSeixkqJ6YChcbD8CQyGfken2FwQfZTasrl0dmUudIS9YqB736yzE5GcLljqq068jxfmN0yrcEniY1HFAZCBryAnQPTIBZYJHiNGt8Xhygc7xCWMxPY3vMXf+FTh1mkcsIJJ3jeYhzjVbo9kdof2eQms226HbHiVFty5Cm6GVrygVLWNnWUbVvHgFUEoNJAn28sNVhJ29ymXjttqSpmocHS9c2qFMEPCZINCijKe/JJ6egf5gpd1MwsHdIxzI94QTS0RHUybYbl4yc94Byvd6HhaovjEp2WIOgQ2ONK4pt08iRDgvAAoDhHnig0Bm/gKThVACvyG2mE97HXu5LuYwqkilZVOjOWqLCb2JJOrYj++rok4P6stWTm2/KFJ3jPyJw5c1ybRwFzRhNyL2p1AAzxO7aa3CccQKcSxy7MSCEf4TcF/C+Xf1QO7uXDE9xmzpzpaREPLcneiHB+KH/NU2batNkr7GV/8AbjC+t8AqhvKGs95UZbv3VACeetPCgfR0AekMZszVTtqNlDtmLRVL3PdA3lk63DdSLLwM3/xsh7gmk46iDjYOYoN0mrh1nDdTBlMB1DS+QyHHn5acmBj5lA8zUq1UNDSFfEqDAAiBmEqziIAoDYYCrwe+DkcSr7afqtJdhpC7NWP0Xpye5n8Xm1VG997X2WGWy11ctfIBNA2k8AnzVrlvPkfEhugDtqeghwxooKv9GOj63AiGLZAyWPbrrpJvvIRz6i3zV71atfPWwycd4TkZ4DQEeeTwAJ9Ged83JrnSEzTWZLqpKxoWqLPfpkr+3YKRMmnbNcVY6q8l/S34zsTnvhs+daoSV0T2aNnQ/2XtEmmkKlDZUXvxK5+YxZyTHKjYoK4BnMC93Ufnu/aNjUISEAcEhJfITpEGGIPvoaEM0ZWt4dGP0FTp8Zv9jB2Pg4uZn6op148kqxABByVqs0+0BN57aSNWWW2UXnXOq8YIOzZjbyBb+ufSgcnakMEIBHpoAdLR9Nn70RjzmwJAj51FNP2Re/+EX749e+1iepOSi8nPZO8LBgyXw76uhT7bTTnmcZ2fEsrhnoKVpbl9nj69sIZQ1MiJM/xK4K2fqUrZyftWOPzFsxwwBVybK1Pq8UB5PIH7L0Nc06IzeUDKPCSCWMDgfZu5Rg7wBYdOAHWSJqjoNAnkywz+IXTcKuXywDDKAHOK7d9JuuqdjEx3IPzdoz4VcaJD2ogs1YRpUplynbqrOn2FDzoOVxmDLdij5nZZk7g1vTdmzLpbZqxckKJzt4/jRraG6Q6aVWpxoKKvJLwQW/I+12fDR9Ij0d+CFFpxYunNnBge+ybt682dPhGEP+nS4Opo2krV6gX7pwobUuXGHnXPQqa2qaKwANWXtvp7UPNdjvHuiQPT9FkpPZJW2faqhZgzTnytwOu+y581RB5IdUVZHVxpVrU13rTwaNlgOX9MqBCXy5OBCpuy5XZIgS9E4DKT/uP1MatvEPKgkcAJhCZOIQXjraEs+cLHE/mhMHUpv3jQAQCFMFEDNl2fV1U81OOnehVwY+38mncapFaZ+eknXvLNmqI15h82etVGUt2dzZi21K60zVHyZqsWd/+ARR1PC72vGTRipBuOcjF3VqFWfNW2JT5i2zF73s3TZj4QLrLfdaXzFvnYPT7aFNQ7ajo0V1tUP8StOr1RoUtAulLjtzdc6WLFRbl+7zVjAIXj7W5BXAMKEwfEmkZIfi8I1idQYHru0d7NDE8XJogC9AAAq0ottoIh8/ENghmmq6JkNX1OQIXhakDgFTWh148unPcn2vrb5gluVbVOBKlg6fjLR6sa8me1+VtWehnb7qxTazZanVFbChW2zWnGnDZg8VwG1SFeRBAT0kwDMvp7GQsYWLj7DW2UfY+S9+nR254jz57jnZ9P02WGywbW1N9qiAX64rSqngLGetv9Rr1aFptnxWl51/Wt5aCgOWrpQVJTJXGeHRTz7uHewQEkPh8Rv5IVdw4P6cy3PiZHqINH5y0pkNhGjKMAtwWHxXZLrwkr+JzOxoiovNwwfP1LSi57JFmQhFmTyzzepkY5K2gJ+qCCTdFevd3mv5/qX23Ge90VrqW6yxIWWLFiz3bcABOxqKQovHZIGfuFEaEJqxeUqrzV96tDVPX2LnPe+VtvKEc53nTLbBBkt52yQ/5cFHtuudesvVdVq5Um9FmVD5Yp1Nq7XbC87J2qIZ8gOKOUvL+U2xKk3yoSVBQUwGkYdItJTsLAEOGJFnrQRmDWsSMHscAxNcAQ8N8IeJ9anh+6NkNGr/g6UsfXamKG1qYt1el4aR1lt1ToPMBT3IJIxI6My1qXYPWe8mVYTOpfaqF/6VHXPE2VYeyDrvC2VX822rCMjJpFihmNA2T4727PlHWsvcY+zil7/JTj3rBZJji8zHQevur7PNnVPt7sf7bMjqgibvz1kxLU0vbT7D2u1V53XZWce3SAHglPPxObZURCkk84ESGU0moTAYhAT8tPYsGCKPkwmDQwz8kDVGhV1DJncmuHLvgUgvZD+VKqvgpf0FfEY7Zx5RtDMuWCVdF3wOuGJiV3qoYOXelG1/smbbHptmZ69+jZ1+8pleSDi09POj/fmu1WQSdi/dqqQ1bdoMW3bManvFn7zDVpz4bKlPgX6oZr3FXntqe8XueLRo24aarU+AZlvAtMweIJ3Kpu2c0wfsVRc1WWOtXkAXANNFOfwcQwogbU9ryNLMSSbKGxlGM2eEJg/6w5PUfk+jKF2RSdNq1/zfrfbgLzpVKfosJzOoVGpxQEg/yWksWeO8qh11+jR7qvsmu/aG71pPX7sPEuEc9vZut23bOn3zVQo1mAyxGolUvoniHqbhItd9L39Wa8nR9u7NdEnx5qy1dZrNnDVdrSQ2cM0WnvFGe95zLrPmxpnGV4z6yhXjy/3r5JOsWZOz7lJBDVmHspSyrCp2txT79FLZzjtim73hVQ02s1UVvtyqtLHnx/ZA/b9Kw5PUfg/80ST7ma5BAbvS1WD//W/r7Mm7qpapMtKp+94KsHSvwTrlHNZNTdmRp+Qs09hudzzwI3vgsd9aR/tO11zeWyHfpa9XDqYqQFiqF77pNNyQO8DjZYB+TSDEYmLxSkFONAM1hboGa21uSObNzLBFS06xE1afb0tPPdXnGhWrNesppq29t8HWrR+y+55qVGXZSgErwgaxLqdbtntjKWOnHb3eXn/JFFs6vUGVWnlSmODzJIz8P06/B/44FAygmlWqdZbK9Fj7upTd8KU223wfk9Da9Ax/AGjWWVFmQO9Q0foFqUVH5W3Jqox1DD1hj667y+5/8A5r79jmI87Md2Dekc85GRryKd7MLoy9PxwhbSZVZX2yVS7Pp2/CxzE42OSqTrb7sSvPsCOPOt3mrjje6qbNtorCDhRT1lPJ2Ka2sj3yZNl2tMupzfQrXnr2S2ozaMQyxk6Bz1+1w1723Jm2WJo+W8lbhXBMzlNr8r+FDhj4rpkSTcX8GZplym6MeXYY02he3bdIgBcI4Jf114TetWyt2/o21NsVH33UejcLgNLWOYBSE3DR6modhoZm2faujVY/I2XHnbbUFqzIWl/lMXvo0V/YnXf9xrZu32TlavgsUBVjWqYUfgWyizQiU8wiPionB6+a0ZG1qa3T7cSjTrPTTzrXWqYutKK0fqW1zrpTQ9Y31GS9A8328BND9tjmbhtK1asa1stu77U+RVeS/1QoNdkM/b7ojO32mheXbarNt1xZ4bLdVsKBV1psCRi8rAOlWPjEl1zGW4cZPSPg01THwhouP0dUcn24EizSXZrwDOjHVNhkS4JqRrCpTBEg0jJzita9vWo//EK7bXys26q90sJIICVHUOZBWkDrK1asrXdQtn/RZi8q2Irjp9j02RlraJH50bXe1m6419Zvesi6+7pscKBf/kKYYo0cAw9sf5LymaD5XL01N820ObMX27IjjrbZMxerss2yoeyQDcquL9a3WHupztr7Ura5Q07shrJ1ycSppnNWVYWi/71+sE62fVg4M7+1x150VpddcsYUn+eUqTCFQaDPsrx0tmx/mVWpuDP0gZKjwfMzAoJnEt/kEfsbHbCpQzbpY2W01YfrvQ9byuwgdOcdKDHPhxl9kV/W5o5XSHTnpfmKd2pQP5inn5NmH7Lq1rzdfmOH3fXTNmPrfPq5eS+jVqCaztig3unpz1mnKkA6W7PW2SmbPqfO5i9psqmqBLkGJt/1yeHtEfAHdDDYFYbn6dGAr3y+XnZ8g9XXNyl+1kcoHckUc6rYMMU2y1nd3Je1LW1V29kxZD0DClOTmcI+nzWlSzulVoLP9UzVW2euKNpLzinY0QszVqdKXLZmB33gvlF8l6wg5z10Yz6DrkuJD9PN5+krP0iT6e3k7XCjjRtGLT18Oopa3q8T84D5NZF4QjfbGO15iAhZM7Ajlp1PeKdQOGAQ5zICzQM57VJAaH5GLv0+Vr+sYAGrMtBq6x4o2Q3fWGO96wtWGJpm5Xyn0qHXRo6rKtPAUME6unIyQ/SelEO+Xu/WD6oFMFu4pMWmLchbvgmbmzQEGHgSYKiGmSoam3k+MqV4v5izrlLN7p3SbDu6aratnWWAeauVZb8zv0WAZYegWkYOt963DLui9dmJ+QftkhccYacdr0qXZ92B8iqQ+4cwyBMmFykya9NzF+WwrySpJoVNPzz+C62Wg1/3mFTIiGtY7H2oSJwABp0Cr8KBWtmNo9fcPh35+wloyCDAIpNh2wYVokAfbFaOQ0vwB+DhxSc/iVf49WnBuh+cxQDm/aFUtSCtqAKuKq7OBrvzxi12721brW9zs1UFTvSpsTObZFyW49s9VLa+AT5piqIoeHqYIhnZFg31GWtuYC/LmhXqqjoyVhL4S8ydGdQ75aqt1a/1rXkbmjHNcqVmG1D0pcScScnMYm//TEWAVyUmm402ZEtb++z0o5rt+efMsOlTh6yQ6lJdyEsU7HEfTLMDJ8AzQjjuxObzaiRX5IsyYZpBxNyhxwM8S+4SEPjl2PDUxv0xdQJwqDFkki0DadaYWMQcm7DsDzrUGQ1EBlngHTWQbwcovrGrff4HhbOfvNJHEm1oPhWakp29fUOnbbijX63AoG15QlDsIdyA0KDWQU5sVcAcGMpLg2dk4khRSAMW5WMwcopZkpPSZU4SlXVwqGSlXMr6WvJWmT/dhlrqrSibP8WKOJlaxbIAngLEbgQZawmKubzNqO+yY+aV7JQj83b8sqwtmCNzLlVn2fSAWgUppkqTckqFUcX3DXcOlGg7OclMUrkjS7AA2Gnt+Y1M+R0sBOjQ4SHwwFT38KVKMAFu9+LchgzyErUWwPMSd4iAe9jyzK3h2h8dRIoZ2pW4D390F2LKsEYXvgE/Ox8zQgz4AdmBFEi2Jo0JgPwg3ypo5q0PtVpvZ9HaNvfZU4+22fr7B2z7epkgvSgKwgnItYxAX7FB9qmRU8q3ZKv5jPWoAnQB/tYW669TxZlZZ72ZqmWntLiMs6jySs062ZBK1znFkRcfzbmqLVkw21Yf1WPHL8jZstaiTW9QnrOq8GpRsmqZadO8+VHrQ0Uzafxg6uy5wEbLdvR1KOcAeMDuLb7SgNCmzLEiLO8ooN8/EBnvK8EPFJMa4VVXuul7gqoiIkPwEFslMLt1644AfPbV8YzptchqjJB+5+iAsQgAEBEmzK0ZH4CTSWQqZjpS4JX7NZkVA85RWG0fJj7xTmihQpgDpWy5LjFl6C0RcGt8LbDeKjlsxnoJmx3Y8pat1FmfbPEdj/fYju3d1tHWZ/29ZRsqScunstYkm7/QpMrQ2Gxb1HKs7a/YhgGBe7Cm1kE8ymxqqGuwkoBVoRLIlJxn0uxTKjZ/1oCtWFqxI5fUbMbUqjX3y6ySr8BemPDjLYENuuMaShRnHd+GxSXybeT4jkcROIgnlOtYQsaxBcXcZVdnZEk4TEcUzUGjyJyYGsFsMGXICcpvcFCtrudK5Sb+GDykpWfG5+bNSa9OX1+X1wZeJNPY7WSQ2XEMvAAiFoxQe4LTEhZXBwztKqJJJiVH2vDruxDoFlqIXhqaWEZG4Y97zPzkXuBXrwaGD5jo6UaQu1oLad2o0PuDryjbm6nC2N7+ZUBaFz3AL0hL+8LDoGxxvhieIx/iN8VYwCD+QUFgL1hR8auOqHBkoslZLuRUeIV+mUXKj/74ajl6G2Hw2c2ybP2aygoHNl2TlqMHikqJznebnlmWiq+aaP5x7HxE42G8XEfs4YgFZBgUYJAC2p4JZYRxJ1by9wgOBsE+/OlEz6K34OIZngA9k9xQ2IHnsPsCSxf1itMYUydueMRi6wHVFhcATate4mV+s2AkzpV3EHlMuwtx8ohCkYCVJKu1qL3wgSkGxb114vpcKgMzP72LbQL49PnpgDjOWESTAip6TBxk3FMYQACvabUCtUHxo2Z3KGv1+QZZLW0BTKooQUsqnA5ZMyoodkJWXCGiYXBzjMc9oK6yA1qZzgZ2SqhTetMUUZ/YyPozvkSeFk9p0qvwWU8cXPjblZRmUqZsx4jMKHs2F3Me9Qx+AVZQjgFQKBZXmkkUB4uAPbywNhvzBcWMXCEAT+eF70tEtoQLLBQn/Qb4LltAQqZoDhzQRKsXAQ5v5gQeahYR0vftxeCZHK84Jp68B8aTkm1JpsQrGadWwyc2JqzAO4XlW90lBUTeJorPsLsyF5gOwb6VLnacBjDpICk0kNKt4lgK2+mMnCvrUhXp0VlyVTxBS7Kno8wjKZyUwnr10ftIGMfX40t4J91dD1oQlLcvE0zJuUTrS/sXap3WYJutvtquQ9qaWaeqnCy1HB/0SZwyBT1ex4JaDQEnPKEuB2WC4gvXCqey8Oz6yx7s4JES9f2TxIPvTKffYITf8IdlQoWAQZRhyGB4FXKN39bOTmqh+SJzFApanhbAbTkFdNPHB3wOBSUcK2eh6U00ulog/xK27vNH5aXFQgORY4QA8+Pry8knpjWXiwITLVFm0AZKvZarm+p98BK8g94VTKKpMC33l1e+zG50s9JHLxOqaajDqjvX2FDfBquWGyzXssxyM4+zoRxTj/FNQiuzK0U+ABELgRxMIjCAvCl75szzplsAKCCAr3xwb9JlHKN3gMusUdmDV5SiY5OWPrEGUH5UCioAv135cSSRDJs6bCGI1iRzRIJTOL6zMsmZG0MCtnihQpIJiN2zaNpC95/AozNhgjlDxnQAei6T4jhYRLI+KiyhUzBQZXDQerbV2+NrOqSKBuzIVc3WPLfe0nJGqZMJo04j3O4fz0w3KFP48hPy0vS5rbdbauOvrYStL2AMZadbasGzLD17tSpJvdIpO0BIBWBgtgb/zqy/n63KpTh0n/IHXGjOESxELiPf8Xr/eN5f8oqmv9jC8BveYiUIFTCsz0VpRxrmchgTgYZNHUDPQ5wCdvf1jHrh7XocTApdpwCdjUEHdFBAXovJsP7iyq1gw4d3RjJ48PhFVNHuZacvepbcTu5ttp9efZfddV2b3Xt9yW78xuNmfXJOh51LzuEIGjPe33dicpm8Mv9GbbYkGfU+ZZmhNtnzactXe2XqbLa27Y/IvKIrE59IAtI/yhtzhs4AekBiK4p88ZFQgox9gIkR2pVvaP953h/yll28gQMWpPt28OLP+VQeeA7g6+rqvcUc4S3I1OU6CvSRgt7RyziKQZNyZ/zAB5dUx5MCCqZLuGZvflhj12b3QZL7sHyoyAEjAMIXHQBuZ4qnnh0NtmVdn4MwI7OjfVvN1q7dPKGyLaYKsu3JvrQeml/X1VSdFcGrfqf8I9UMYOlGul+8Brs9gAb7OOxwwbwh7/KNWEgAf2hhID6llCMP8BmLOfbWAXqXf1IR9pUc+GGdY9JTc1CJLI0+AHFogdCcZCZuLeEFpTMZLvBhCmWWDPMCp+T1iafxRKJ7pM0f/KI5BwdxtJlPn9iWQK3RrHFKk2SLmEtWrg5afWuTLP+JI/R9JaVDSaTSDVZoXmIl+RHpmlqdVIP15+bYlFlHhJ44zBy9g9aM0wvgOYAryJMWlPvw7888lYNAnlAoSCokZ0yasM9O8N+8y5Qn4gvA4yMB/sir/vPn+0IO/JCqjskCz14Ihp1pEQXg+95Le6LNySwZ5ExhuCNLOAnCm7CDwLOXRySSo1A8zdAZAL9xkTwOFkrEp3DIEWyeV7VnPf9oK8wqWX5mn539vKNs3tLp3jpMFIXP8Is1afKSgJ6eerxlFp1sqeZlVpxxomWWnGH1MxfJMK5aaRCnEFMxZAGZ0mOHf+RnlYPLNjlC7sdIYFKISuf/YCpJl8rpvoiOiAP4RLH4rmoJryP87R+vw/34h4TEZwQ4tiaZDoBOuYbCbKD5DUIJmonrg0nINqmXw/zS68EXZAAOvUyYBUHL27C54LnIqAIP1knFMsIroDUO2lCqx7J8tMH3rnnmRPdnNS2tyDSKWqM0mUyudLfVi68hNQPVTJ2cbpk0km9eLc9AacjqGuq9laITw3fGVhxB7rvk9yARsgvgD2MI4MHv6TdnOMPEHVv4gd8Dob3M1Zl8IqOAiF3HfLakarLPCdIfmcWcgby/W6VxsAtjmJBvkjbTsKmMPhNVPAa7Hvs+bH7kPVDKxzCIWKYokFfQ8CnZ/mivKoNaivAZTRYbIfa9lNoIFaAqv0fplf2zPma9/QNqCVK+rWC5OKAwjMIraW+RWMQeW69DS2FRDlMK0OTKk3ephq7SaMMP99pBXjvD5YHQcK/OwSb4BsmAOWSQn/ymIMIgCfc5gA/hDhmNSpveo8hL4C0AHS2PlvK8JKCHMjWZDxXdZ8BKYGfzqnRFeZN2niiiG7NWy3n8ORuyQq3f6uRL5G3AGjIysWqDqhiMxDLKq5Y0z5Z8YdrJMwHPRBK8UPZBwenaeQvmlw9W8tsJ2T4z0Ec6NBo/AToZoHb7PpO6HXZRAzxJoMOOcLjK3r1KgbCZredD5GYYtGuhAH4e+XRmubW+ZSEFPDEuLo2HVZmjozPzhBiZVUXD7QVEvnGteMv77gzihZfgwLXP4UHIkAEzOjSQa+hVCv3xwc4njP+cEDpEpg45GCt0+mlHzATo8CmUMQRbYp9ep9BChduYO9CuvDMhjHk8zO1RlfHR1aqCMvUBDT0RlCZeph1Lr9dk4sjwEgv4GJInAWTegJzggPM0jM4HOjzkDLDxm3znbHCgY7Qske/olvSZ0iG18X9Pv6dDRYfMxv89/Z4ONe0D8GkWx2uW4/1dj0i7/PaWavTzp6MYdk/vPF1cek6ae20h95Ufwu1r2BFyE2g4/X3hZyJodz6DOT+al/GI90bzmPzeZxod/+j39iEevRfNxT3Trs9jvMmxa96G8zA+7ZvG34MjNGwqjqKQgV0e6PXxY9gzETdx7Z5GvLG3GAmj57u9Ow55NPsScP+JqD36hBUfuBpPaBNKpEga4RhxDOPFHtL3MsaSHm1Nx7jGoRjIzwlsFf8IVEJawZ8YiXFcIowO/vYANREPQpxcerR+D2+G2+FZ/CMXfn8P9LTAd+9fMQRnbuQgweGejIQBwvq8Gh0hTEK69ikGXBNdEsfeDo9mTBq7k0KO+y7E+wnj/nt34n7gE753jWP40J8/Dy/tF/Ee+UYmcUBmcinw684haVbC6rmQVx26t1fysqFbMUwCi12M4f1dKIkuzlEK4Xif/5Gn/lcco9/fTbbJQUTD7/v/T0P+TugUoaOBqQ0xLcefnnt8e4lsj84t7+3cscNuvuUWe+SRR8KNUcQvupw4nHkR56OOOsrOOecc3ys+Zmrjxk3205t+6h8zA8hJ8L3S4iVL7OKLL7bZs2cPh2egY+3atXb99ddbV1fXHvPFrMITTzzRjjn6GJs+Y7pv4R159Hzoki7U++9/wH58w4996kGcB7IrseX3CYrr6KOPtmlTp3rcHtOeEhd5EnquYrXNm7fYRz/2Ubvnnnucj3e/+932nIsuCosjXIpENFa2gZL7HiSG2VNYKCwmYslld0+PffzjH7fbbrvN595cdtll/gE57xNXXFEUo+OjXDZs2GCf/vRn7J4199iCBQvsz//sz23VquO8P31suikfab/xxhvty1/+sn+X9wUveIG97o//2MuLBHj+8MMP2w3X32CDrOLaBT+jKU4vb21ttQsvuMCOOeaY4ekpgULeqcjM3dm4caPdfPPNdsfv7rB1T67ztBobGuyYY4+18847z045+WSbMXOm+UKUcWjTpq3wU6v19Hbsdtx51+21s88+q5ZOp2sSlh96xw+uC4VCrbGxsSbB1lSgtYaGBh2NtXy+rvbCFz2/dv8Da1ShumqPPvpw7aSTThp+d1+PXC5fu+g5F9YefPA+8dNe6+xqq33lv75Umz59uvPEMd57HJFfFV7tTW96Y+3mm3+qODpr3d3ttbb2rbWu7p21L335C7WFCxfuc1xLly6tvf3tb63ddtsval3iJcipPTlG5NbdE3jtUlpbt22tXXDBBcNpcMDTtdf+QM/bar3iSUpnzPs9PeHMM9Lp7NwZ4tSZPIwJO/ro6fJj587ttXe9613Oc8xDJpuuXf7RfxFfhBuJI6QdjrvuurO2atWqMbzOnz+/dsOPrx/maST9ztq3v3N1TSD3cJR/U1ND7Y/+6DW19vadtZ1tO2r/9/9+vjZ37uwxfOzLMW3a1NqnP/1Jyaej1tfX7XLoVvo7dm6rff/736390Wtfo3jn7DHerPJ6zLFH1d73vvfWfv2bW5VnyU3vB1lLRjo/9PCDPtKxG9GEfP/737fbb/9dckcxqsaiURhcQItw7fvsqBZylMthNwN0yM033Ww/+tGPXIted911ru32l+Dh1l/car/61a88beZwfO9737P29nb/vTfiObxs27bNrrzySnvPe95jN0izB35r1tfXbz+45gceF+Fo1vdGxLd+/Xr7z//8T3vnO99ljz3+ePJkWHUOE1MsmGdEvNdIhreoxeT9eGzZssV++tOfOi80y7uZcnovroBjfj/TOvzz9boP6ZU9kmKz23/3O7vmmu97WpHoH//Ot7/tLTihhkmXRMtx/Q3Xh5ad2wmvyO/HN9zgLWIkAd3L9corv+byY5SdvKJ1+SQp9zZv3mTfVnr7Ula7UntHh33ik5+wTbISMKPIf093j336U5/21vIbX7/atm7dtsd4wc0jDz+iluvTXlbXXXd98gRKzD/FuRvwiZDtIyhoCicmwIQsMhnnTiAAwM/zWCEIT2FxrFu3zs8PPfSQv7+/RLzE9+BDD3p6NHG9asIjP/G8J4LfOAL46GOP2Qf+/gP21IaNw3NUtm/f4fOEABjx74l4xkHlYJ7OfffdZ6961WtGAXbsu2EOT1jk8YUvfMHvwevoNL761a96+qwiCnNQRsjfF09x1RlPMTV8Mhm/98yqg+83v/61gKGmfBQhqkcefcRu+PENfh2JikI5wltXZ5enPZpXvy+TckQxUCEk21zWdu7c6XggPLwh5/7+fimVPhvoH3AeojLcHyJ0e1u7mzMQ/sonBfpPfEKVYdMWv7d3wr5nJLhsa+65194l8P/s5z/3yYTwzt5KJLIb8GGU2YZLZGPH/VLIYMwktjGAiZnieRSMC04HGu+IpUv9jDBGBBcIYcdjT0SGAe7R8hkg4qX2kyZ8xALiGB1fbJE4AwRWbg0OBLvwe9/9nk/LRSsQF6D3uJO4eJ/zaIr3/CxxlfU+lfqKr13lguQYTYxAcvzoR9d5OOKGIqhIs6Ojy37yk594IVCBQpAw45OWDflCAApwBieVQLskJvL3daAdt23bbt/5znekMMIa3khkqaen134nm7ivv08pIcPwjHLEQYxEOqN5DRRlEhQALQgypGyjjKOceK+5udlmysamUkfZgZNdiWejj3hvinypBQsXqqWr2Kc/81n73Gc/q3SidQFvY8slXnPEfGUyLDZnB7tBe/3r/9RukhXiey4pAE777sDnTzy87KUvtdNPP2MY8AgIDexhFAAmYqIcQYBM2U3bOeeeY5dceomHcy97HCJOjj0RjtjZz362Peuss5I7gcZ7B6FyyOdw0EOj+YGPwcGiPfjgg9YvQaBBdwUHRHje97n/ycG7kOdFz/0s4X/9qqu46wUxmphzgva8+aabrFPacjwiyo997GMhLgGWOf2AG1mRDyol+aRl2vP650C0DMRDPn/y4x/bo48+6vHvRhIbZgsdDMRPePgfTTGvowlxwwu4IBJaKVo+yj+mG69pCZDtnLlz7WUvf7lNaU06OEQxTKR4zXn0NZ0i73vf+/zr8bf87Bb7pDR9KCvCxGMEB7Hsg4zgB0Ud5nyhpCif9vY2+7d/+7w770Gu4tXfHkUIn5eOXHakffOb33TPHWECpLvuust+9rOf+cskxD0yJAfOTuWTNKmMe9bnnnuWNTTWkxP+eYYio5HoacB7B0zj0dKlR9j5559rs2axcGPshC74I33SBuzvf//7vVeBdGhq77jjDvvrv/5rD4v2JCwmGj0sXV2dVl83xyfH7UpU8h8LPAgfgmfyf/nll3vTHguIrGzbvl2/xYerjpG8kdbjTzwuO/uaEFAEvxEgPM/nM9L6HfaNb3zTXvziS/0Za0qpaL4RlsIAerQ9/yiTJOndiCRIpar80JMT7oV0I8Wf8EyP2HHHHRdukELyjHdiWcAjv8kvq8fgD+1NixQ0Li8FxcUB3/gByJQ4sBTo4XnWmWdKnjd6y0DeP/WpT3kLAUVZ0pPzute9znvPaCnOldJcuXKFT1j7xte/YZ2d3R42pBne4TcTBF/1qlfZK17xCq8kYPSrX71CPuGvnc+h4qCHo/VlLe7tv73dfv2b3wjXy1xeRBi89cTz5Zrej46OHaEXpG1bbac86h07trmn3NBQ7705ePISiEvgwx/+R+9RCB7/qF4O3ftDefqEGX2IodoVV1yh+LvDe/Ho5dA9zj3hDA/w9dRT62rnnntuTZVLaTc4D/QkzZgxo/bFL36h1t4e+N2+Y0tt+/YttRNOPL6Wz2c9TOh9ytdOO/2k2r333VXbvGVD7fjjV4mXkd4ceMrnc7Unn1zrvQguC523bNlUe/GLL2E563BPAudly49MeO723gJ6XnoT/v/iPX+mMCGcQOHpc6jp9d4wzqR1xhmn1TZsWM/2LuJ7s+eht69H+ej0HhjO3T2UBz08Hd5TBG+k1d3TVusfiPLqrn3ikx8f5i/ySPmMvscxZ86c2ubNG/U+Mg58U+bvfe9f1gR45y/KjOMtb3mTeNtY6+jc6XyChba2HbWTTlrtGAg9evV6l94vqz340P2KLyn/4aOztmnzUzWBewwv8LZo0aLaY48/qDAJbjx/XbUbbriutnDhgjHhVf9quXymtnr18bXrrv+hxxsPymvL1o21T3ziY7UFC+dL7pmalJ3LgHNjY0PtJS+5VNjYWnv4kYdGenXYWBMN7teqldRgtCW1HeIcal0wI3gWf+8vERdOIr0b2LrDx49/Yjfq/MTjTwzHTR8vmo9fEqybQGhDfI1I8I5Gob+YZWkdHZ3W090t7RPsOcKiUWfOmOGaBQ012q7dlVQgnj4NPH3UO3e2udbgHs8oh9YWvoAoO9xVPiHDO+0K/9X/+qrHA2FnIi9kSqsDEY6FF08++aTdcecdbjr5fkDSlsROq/NRtTIf+chH7CP/rEPnf9Hvj3/8E3bLLTc777SufEeLuOit+cqXv+zXo2mE3xGip+Ybasn97phnISza3jspxDO/h+SkY77he8S4OHNJ/BysN96TSbu/RNyU5cOPPGzb1UJF8vR0njplqrfmZ531LPf7Ig7hF95f/epX2xvf+Kcq42AegjXig2771a+G43RUEylNAtvyEVnIggqS//UihUegmPFYQVzQ4dZ+Ee998YtftDe/+c1jj7e8xd6i46Uve6l95Sv/pXDiJWl+IZxuVj9Fis2mAlpXd5d9/vP/Zu997/vsXe96l23YuEl5CmAFKKzVPOroo71p5V6s0OORD+R85l/trW95q73tbW+3u+++J6lEAdzI6tJLL3W5oSCCHEJPwgc+8AG37QlLBYvHC1/4wmG5uUmh53T3/fY3v/X46AGjUl951ZX2jne+082Wj370o8PHx3Rc/i+X21vf+nY56d910yMrBw4Z/eAHP7B1qkSjifTnz5/vx2iC1y9/6UvW29ub3AmErKiYyIUD2cIn4T3fhNE5n/h8EPcBlecn3HrG5EpO8T/6yKPiYeTDIxDpnynz6cKLLvSNzkifw3GgM++B1df/yet9wDGabMgflumhwiSCVy99aiwP0Fo4LtQWMoPNyzWR8zKjltyPAnE6gAzzfmdnp9vNbW0dI8fOdtuxo82eXPeU/etn/9Uee+zxoPFhVAXNSByOWdwGHB6IC43+53/+HvuXj1wuu/kb9stf3uaCQYsGsNVs8ZLFbk97JXYayzhxKZuqQN32t+///+zv/+4D9vWvf9NuvfWXo3qmEGLaFi5aaG97+1v9nTglgOsd0rw3yIFEFyAv0gJg06dPtze84Q3DoIoHo7f4TBs3bVJ+QkX80bXX2/ZtO8Q3jhk9K+HgN07eli3b7Ac/vFY8DXjLRx/3L279hfdYjCbSf/3rX2+nnXaal18k0t20ebP98rbbnPf4DNDzTtSgUfMH0IQlgPA7GgvQsBL0/585KSnna7uPOYTKhRwjH8973vP8O150b9OKgwvuu8xZuiiaNm2azx4gr2AY3mlhWTq6ZesWL+dhtUfNJWP0LmAe4DyExELivm2GngEyEppsgsmtW7aMSYuCoHYjGOdXhYPGpaty3dq1XuupxDTNgASNwZnP7f/1+/7aVq8+KYlpdyKPJIWpwnD4WEKsgDWlVuMo+4//+ILJrk1KCW0Xuv6+9rWvOXDy7IcpYcMrwl+9erUdf/zx9qIXvciBwjM2w0Ked955p625557h3jPyGME4miJ/PKH70iuEKuP9D9xvP//Zz/3d0YRJ98dyME855RSXUyQqcH9fn1177Q9VKfkuokjvItNYtvAYFQvKkJ4utvKIFCvFMzF390TkE1ni5COGOFhKjxGVjY4HH9jTQdqxNYcfdn2La7WRJ/kgHKvQYuuB4wvLDvzAfKjlRE5E4T7ajCchTND0fmvSic/jM1+E3XrdRneGR8wNCACx3tULwcNQKUIFAfCATg6xgPofdtkrLht+b09EM0sew+a5QTsGqAUgMg/kM5/+tPdgIRSFdtlQQlu2bPYKQ+tApY1mGMoD8FEQ9D4F7RN8pCEqpirpJz75Se8RoZUiLGHG45W8s5HWCSec4IAgyFVXXuVN+K7BL7nkEps6dapXNipBJOLguOvOu2ROPOKyQnNSiUL5hojIe+zaVfCR+HXmMow/hJs8n0jCn4JnzC8wibyKQ3xZvmT33X9/wkwwOUnaFYl4pQV0fOje448/7mUAdry1VkD4bJ3SShKJja+Dl8msZ4JjmMhpyODTAWdfKQq1sbFRmrNu+GhsrLem5gY79rhj7MMf/qAtWrxQGQ+ZgfdqFeeLgkucxkpJtbnfu7OYQEa8o3mkti9duthOOPE4vUOzzrM95wEbskE8HXvssS5wyOWRUJ1awdUnrfZwkRxIlrV77r5fvsC9KhxaTLpaQ7depVqWv/ApVZaT7bkXP0cFgfbhAwviI2Hn3jUP2BNPrNd7aXvP//kz+9A/fsCOOXalHX3Mch0r/Djq6GW26njJ5Z//UWH+j6fb1dljV1/9bU9z16JhysmKFSvs2c9+9rA9zzvIrVCot3Xr1tt9993v7+ZzBbU+bGIbFvmDBQBPJXYzuMrSSUGlFvLtfmCiFCHSRiQ+Cs31WACNS/AyQlHBEJcArTKm3LA6AC1l4flT+td8n6kmHV45SIv8kC6VwMtfGNm4YZPdeONNY9LgijwdccRS/VAa3PSandhHB4PI3Ic+9CGfh7Pr8etf/dr7mk888SRlOmgVMu+C1UFGKRhAHcyemk2TDf1aNeuqGsTu9zjz3re+9S2fN+QLrV0QI8IYjxhxfIVahzizL8QVCEf0hz+41hnhLkDlOU3pl+QwoplIwzWMk4AmUPFJ/22y23ds36lnyaNd6P8IzLxP4bztbW+z22//rc+V+t3tt4fjd3fI37jV3i5n23OgdBnoiS3LrtQtX4WxgjjlAJnV19e7/OCX44qvXRG0YnHInxHGgaQ8AHrIzQRpWloEiPyieYl/NFEPeJ++eFrOAyUfXBLQ6YjAvEImHAH8Ne8J+0/JGk3uZo3LO5Q1mMDsRS7wP7rsuFq0eLEtXrRI8vNqzM1nwur+E4JF29PDQnMcj+aWZm+yyBRD7DBI0+61WZofDepNM2aNjsg0QHjFZZfZWYzy6kcAuB7qRMF9+MMfkUZd6wJykuYIb41QFBJCv+TSS+2YY47mrt+jQhFljzQn03CZZwPwEDYmFfORACXpjtaaVAxGjItDdA/SpRbTHUmbsBzY+nTxwgf59YXXXi760z20LIVP4cLMAw8+6L05eyIqELzEIyoL5Bbz+rD4XnPPGud7+fJlHj8mWGiRQhcggz43JZPq8Kd6enq8R46erzGkLM2ZPVstd0Ny48DIOVNcK1Ysl3Y+chj0QZ6hB+drV1xh//RPHxb/j7gJRHb6+wftZ/J13vve9/qg466UkUyfL8eY6RCk4cAPxM8gkImk6C+MJgSPvXv66afLpj3NTjvtDNmtq+2k1afYaaeebqfq3gtf+CL7+te/7gKvKzD3JqdrgUgZH9GoIgkJgTQ1Ndg/ffgf3WmM+aA5Jq11a9d53y/NegT/rlMNQmXhQpph4XwfTYwjpjzDmc2kswLoXRL818RHcJwA6Dve8Q4vIPgiLIUEmDHDKjLHwshziAueADZEGIj3GHH+7//+b3/m2s2fJERwfzfcRaZXfPWru3VJQrHS+ZdVvAWUJpS5VSzxaRzyHXwfCJ4/+MEPemuP0hiWQULwteGpDfbmN7/Vnnfx8+2lL3mZXXjhc+zv//4fPP+70qpVq7yDZF8o5oUKynWo6DifzAOr2GJpZ/wz8hLlimVCi4Ti+cIX/kO8XGTPec5z7SUveYmdf9759spXvtJnA1N5KRveQZYQ0yhY30F8lMXuqJwwkhATOe4iTyc0D80lA0T0Z9M08RuNQvO8bu2TdvnlH/M+dInFM8+s0T2SEjn++FX2qle/0sETCaGieX9126/tB9dcI5aCvxAFEolwXhY6APwf/uGrVRFPDA8VHWChEjKl+ROf+KTde++9iidlt8k0u18OV9SqUOztOOmkE2Vjn+XHWWefac961hn27HPOsiOPPMIL0AtczHCGbv/d7fbU+qfCdIrk3lgK9x6WU4om3pWIc/ny5UrnWXamDpxwnGW69uhZCnv3h7y6SaM8PfDAAzKjfmczZszwMFDkJxKtJi0SGjVOX4Hv0cRXXXD+x1N0eyPkSnwoNO+QULlwjQ3/h3/4h94bRlmRHnIFJ3Q+lFVRurt77O577rGf3fJztboP63niyI4i8kLleqkqB4o25C0xdSaHgvCodWPFGAgGeObPdU3mOPhNoSCAHTt3ys69ndCjjj0TA1x/8IpX2PwFYwdtILTjrb+81QvR0wHNo8h5UYXxs34D5Ms/+i9Wn3RborURIAVFq8HcfPj+9re+7ZoIogApHOIAfFd87av2ve9/Jxzf+2+d/9u++91v2+c+91m3hQlHfBxcU5kejNO4x1EWke6XSUSPzK7yoP/6M5/5jM/Q/IZay6u/dbWPazCh7otf/A87+aSTvHKSD4jJcQxa/uCHP3TA4Gdg6wdwjE88i2U3mlh5d/bZZ4f7ey+mMURckR+usfG980DHkqVL7JOf/KStXLnSFSXyjbyFUiKtcOZ28miY4IWDvv93vutdnjdkTcB9A77npeq9LrwHX7GwuMZWR3t4QD8i1Wz69KkCWrgXGYF5tCcUmzIyBuABHDQ0pJpNV6Z3UVIpwgDKaKBw5HP0MbO0MNxfvfpkO/usswOfAjLa300exTkwECZZ0VOUL0RTIOSFysBIKE4whBBPOflUN3mgAdmQpAe/8M5AEgMp9IWTHwAfC4ZwZ5xxhvc2MVOQg8qB4PmAwRlnnukjqoSNBRll4J/Gh/kxckwomWFCuDBZLMgU/4d8HnnkUjvp5BMlR3Z5K6hyNSWTBWu2QMrgWWedqfRD/zZa1T8SoTg7O8Is0rPPPsve+c53CIhBAXnc4iXyCI1co6wURixhZr72ta918DuNhQAviaeRrQvjQfyxY4URYWZ+whvX4AA+Vq061hXQ0Uev9LRIMw72jeaLuPgd4/V7CnbJpS+SovlXmz9vjmPY39HjEMPTUnC4KLDW5MPDUTA0kTQhZM4zmVASv11w4YWeYXghUf54LzZdxEXmOQAo9ziIbLriPuPMM6QBGFBrsCWLl7h2IFyIz3yN52qZJAwGQU1Njd7dN2vWLKUfBICgWJN54gknuqYl7tNOO9XjIh6CESdrENw583tBE13yohclw/4sLlETrAqCI85ILAEvuug5/iwcUM27EZmiQL/8eESeWU1E4RJfKLCUHbXyKFswf4E7ss7XrpR8uO2II46wRYsWOX/EhSDo+vurv/or+UNML4GLIGemeNA7wngHlZH8eTn4gTJrtOc+97muJKh0AJ8RX5QZcUfTIb4Typ07gcHp06fZW9/6VvvTP/3TYErpnoKNJb1AhT/nnGd7nDEe+D/55JNVORtcDnRsuEwIo3SjQ3/GGad7rxmmVAtzpDxvIepdibiJF6XzTvle/6oWkJYwKJORcsr8g6hYCgsf9kYwOm3qNJsypVU2eadr56OOWmlvf/vb7PwLzg9hJLxIUTbz5s11DYWpgYPIyNuU1haBR2fFhVbi3NLS7GZFi55NmdrqIPyTP/kTe8ELnu+FB3iXHrHU2uQP4LgQ7rjjjrV3vPPtPv2V2h0rBH36vL9jx3a1Ehm3e1/7x6/1kczQbZe12XPmWFdnp8A85OFXywz4wAf+Xs3rYjGelJzAP2fOXK/cdA0CTnp73va2t9of/MErFHfajjn6aM8Dtida7dhjj7G/+Is/t3PPO2cknl1Jt48++ij5C72SS4+/z9QCgEtFdzvZS3ac9+Fp9hxfqNHR3ua/WfRDF+hll70sVAS9SgvowRWP93nrTFk0NDTazrYdXlGOOfZoe9e732Uvf/nLXL6UH/uXYqZRuYiIPPP1RibEEYYR1CmqFEtlhjBn5n3imVYRmTq/DmpPOtDwdUo+z0k+LZxOilaV3wXCzVve8mZV4oUeAhMHfqm0/l7ym2P27Flushwls4eePiokPl/4ej2WQ9aVHVPdL7nkRfZX7/sre/WrX2VNkm3ERSTvMVQNYdFxcutpSPwwykcz36cmnu7HuXNmh0x7xPwXC0vXVH2l2C+HcMuWrT57cvjxrjTMWHivvqGgWjvPC2L0s67Obtu6bav3ArSoAOYKwGGZHpqJyAkcmj2+YN3V1WFN0mpzVeiugRMJ8LxDFZjZigh2iirirJmzkriiEx3iwunaKv57BNKW5hbXJlSo2KLQx71p0yZfGolGmqcWwp8IlONnWGnoNgqBbkFMJ+bzzJw1M2FP4NGfA2CY4nXgCdGy9rSjo90r88KFC6TpcNgJxxGvR5F+Mudnw8aNPrenGV6VF/ypkfcgpaFLKjuzGVE23V3BHEIDk0e06Jw5s0IL6kzzbpB7IuJA4Xa4lFlFx8V2yZyu0dmzZnvrGeroqIDD15yhkQgBcXd3r+LYrgrc5p0hgB8tP2P6DB/ToVs1TF1I3kdYwzw+k70zR69R38N3Uw8+RSFBI4I6MJrIuCaK9oWnZ8I37456Z7iMdV8V2DUxA4q6MwbYh5gc01zov3Cd8D0Gl2Pz9sz3ztwt8okk4hvv2BcaHW7X90cfe6K9PTtUtD88HSj/o96LZesoDy0M4A/TNSKICD/eMVE0XtwcUOADnuAx8hcexTDQ6OsROjDguwbwC08wXEVhTBSFjO1+7In2FG7s/cAv3JL10eFG0+h3DiGNkW3gd+9yfiZ8j/PeLqba2F+j0xo5nL+RQM+Qdo8/HLvSKPNqDOih5B2/PRzoQDU+/drSCEKRO1Mx8sOQAlBGAA+/3mwjLG4l/4+lwyMv8Bk1WnBW4XtfaKL4J7W9HWPJZT3Mb8L7pNF4fIx3L1DseHEcgFv/tZ/EyxE8OGZ42Dh4AVyHFznAxat3o4lHRv1wjDlwxA5nwgGkX5uuWs7jFejhQojSJ7OVw4ZNPjWEf4cJy/gnMBRMtX01dSLzfqYm+6/hQvE5K8rs4USuffz/wCx8sroMsMe1qsmjQ0ujgeEsJfyqoOJcIJ934ncPB4YTglcHgg5d+yf2JVNfJOJTS0LGIlYODQX+XKZiBH7hjW7QvQLfX0gKxl+X1gRAQVOiSfW6x5kyFnkHQRx6gr2EbS8INFAY3QzZZWrDyGSqGPIQkcssHHASd/yKJiSypquObsRDzmvkU2w4iJJKCVc+EJec4RdsTNQC9GdCcAwfUTlT9sh8r8B3xvUmmSQLLAdj7jbzXdBIZDCCKdChzygETzRpjLSGr47zlfToj8BjtO8PH3J+h4bcFIsj186vy/7wkKvLLcEDpi2yjdMs4rQJMOKg8bCHUspo+HDFjE+wMDQUZvYyEyBB7XgMJvckc+x4N2tUEXxOjI6QQYFfNYg57F40E10+AaOiyF88j04ouU5OZIzCiL6H77Tg9ys+IsqIMxU2gskLZzfNRDq7H6NbwHDmvmj49VG/k3uxdfQjSSfcC3Ey+OIVVPzCE4NQ3CM881IYHKRSBH6T9EM0CYV4dj1ilpxnPyCd/f6os1MIE94J18Pp+L1APEeuTG4DD8SNLN2u10OwUFdf7zGMvDc67lHkv5O0whsHSLu8m8SLDAE6pk3082CCATBeCcDXDTIRmNOVAhEdAmekluaXzA5zr/s+/8ZD8Zv/9Cz5OWEEHwnDMXKWDzp/3m0V/YpwjwoJiAA5LRMakwLxFoBhe6eRQmDSEmH1mu7h7I4MbYdkk4CjSfdJZySvio+8+w3FqMoGL36HsN6bkPAcFLhfQzS/zD3HFANQKBDm7xcKYc445EFDFCMUXvd8wGM8krt+HaYHBz6Gn3GGj8DE2PsiTybeEzGiyy/KmT/seEAOr056gTywbWCcIkFco+OAiDdheZhcRgoX7o8Nv68UuBpm33mg94Z4WaBCWXAOEw+FA+UHHPh7ClTr7+8OzCbc8QIFgr1GzeaZ1xSR70vopRHCjZ6fM6Ekdoifg/khzp6S4oyfEW12ftPkEo4MMmeGQkeDUjmZ58OuByEPYQcB4sZf4X3mn/giCEXOM/Lsk6T0hyApZAqJcAgIkPIbZeBC1DXywGF2eRBG6RB3TCPwi9CZ9BXAHie8kSaLZ/xciEvpKq49uY48B7s5TO4L+VYa+u2VR7x4Yeq+z7nRfXgFqIQnrE/S0jluEeJh9JtWnLIlHuQCny4DxQNoMGlIP6RJ3tk2MWzSRLlgM4cKmzi1lA9yEC74Y+Iav935HU1KP+Qp+b0/pDQg8kA5kVeiofPCW3bxRKtPPpA9rXzIt2fZNm3cHIDf29fl9iUByTg7GxAVQgE8ME0iZC7OKAxmD8klXEwYhTgBHKudnnjiCV9IwRYh3L93zb2+7I4vnjBPm0Us7MLGLE3maLA/fNBIKlQBmrkbz3nOc3x24mOPP2aPP/6Edegd5pgcceSRvvFQY2ODL7BgTS17hp5y8ik+NbZt50775W2/dA3/vOc/TwUVlr+xCzJLDVeuWOETr3p6e31veG8VXSYszMg63/D36GOP2mmnnmbLli/zXdkeEv+PPfaYA4o5L0uXLvVnFNAD9z9g9z/wgE+8W7ZsmeeVRSDMUFy2bLlkH0BPAW7evNnn5W/ctFGmZ9nnCDEzlHk7VMobb/yJbdiwMZRTUl5z581zeQA6ZMTC7dt/+1vf1puxGSaAIZO5c+f49wni5liUPRPbTjhBclcazN/5zW9+4zI/6+yznZdf/PznNuD+CVEHDXvKKScrnxVbs2aN5xdCQsj3oosu9HlPDqEgtn2ggA/OyAEFgnKj0uEf0cK6Oa7KCegh8sV8plA9TPLaHGZnlkphOz60lttsyQtEjI1JDaLmozVcYBJEUr4TTAlryhfbAP7sZ7f43jqYLcuXr/ACuPXW22yzGGeW55zZc30SFZsjUcOZfstiZJbxMXmJLUcQDDMJWanzWxUUk9IAandXtz311AafiLVo4SJ7+OFHfGXTls1bXEhMb+YzQWxq1d7RbsevOt6nzQLum266yb8fwIxTPlnELEvi5ne/HH9anV7xsHDBQl9YwgQ9JsC1trTaLTffYnfedad1dnYYW1gz8e2JtWtVWcviY6Ge3e1xdwiQLL+7++67fUtFJuSRDwCPHFhUfd11P/K1xJ2dXZ7mNoGXCWhUauTz0xtvtLa2nXo24NuDs3oM/k9cvTqYQornppt+avfed6+/j7z6Fc7XVwg8LIxhUhnONnlDxgCdZXx33nmHKwsmyjGTk0lsgBt5EhdHn94hz9xbKwWGbCgbf64zC01mzJhJse8XgZKAv9AC0hKF1pQWKTxjrQQEbn0dgPIT02F2pgOfGYyERqi8jLbijHYPc+nDyvfY3IYaN/FEhjxmJcHWF2gz0mSxB/PPW1Sgd919j+/AtmjRYt97p7Or07+A0dhQ73vIoEEQNC3YcatW2UUXXugFBwhoFlcsX27nn3++t1o7d7T5LD/MN7TRJlUoztu3b3Otvv6pp1ygHCedfLJXCLbqC9or7J0zQy0K39piDyBmn7IcjumxzMdfsmSptyJUgpUrVtpmVQC+DoMEVx13nPg4z82JsKvcDgfU1q3bfU0pQENr8y7bjjOlOEwVxn4dsp9Lu8Iv6xjOPPMMO/aYY33FGnmnRWOLFFoKlBctD/PeWShyyqmn+J41obxr9vOf/cy7fE895RQ7WcdSVeQVaklpQckb8/eZTUllYG0rrRA8/OLnv/APQHj3a7Xm8TMVHCVFXpaK1wsl++VqHdianJ3RiBvZrxQffFdsyZLFnsdhRO4jkR6mLHKgM4DWLpYT8KTlDKYwi9RR3In/kRDA9ztuugjonKMN602Dzu58qUYFW4osTw7oIQoCEaDBWP0PIGfOmu3aEM3rXrqASaZCa5TzTGNrYkvC8/z5C3Sucz4507Svf2q9C4Vnz3nuc70pv/CCCx1I5PmpDRsc8GhBKtrA4IA33RR68GcwLegtKtrj4oOKuHDBIpfPgw8+5C0kwG9qFKDEF4s7AIGTl6lk5mEf9MrC3P8XqGKwi8BzL77YF9zQJ77+yfUhKH/SUGye1NbW7rar86AC5z7bHNIKUfnYS/KcZ59jq44/3vfzJG3WMaNtow/A8k22NqSyxN0ryA9ljvKgzNHu1/7wh76xKrsvkLclMsEAPD4SYEL5IGPig4cZM2f4RgBPrH3CW64FMrGQAdqVNQa8Txl4piQXKsCPf/JjN00fl6mHJRHEMwpTw5c8CQd80h0N3/wmT9jy4MB9UZUZmp2yQ9OTPu84bhWfjyLvQg5876/XgVZnHrN/qUO/KXOOSJMJ+khkAID09PQLrOx/mVfNLqupfFLarDswBLsKS0YpkCAQRpJDt9rwwIquKVTvbtMfYckjth/vUhkIRyFDCIsWY5XMGrahYJV/cIz1UEen0n/yyQ26TsuUmC4hN0jrbvWWAWcO7QewMQk4u+Ov9xxoihsgOs/eyyDR13Ca8aH4zhWFqVukpfAtMhH4kgvLAllI4nHwhCgVyB1y3fCVa7pPpfV1ESLyhBy9XEWYN/htg6rQ0Q8BDPDJYnQASivAQYtx3/33uTnCMkX4Ra4Q6VKpHn7oYb9uFMhROGj+xx59zOXs4XRQQQMF2XKP3h/eoVKwOZeXD09CkEDizcsT3nWQX+KFV98tTwdx8W4IzhrtsMrMZZP8jVCIY1dy7gAATIWmQtp0nBpysIidFh6Uc1erVST8XgFtrQqyJIHvkK28yVdqIRccT7Qyn//EmUX7u926CwE+NhKiMmwQQNFomzZvsjtkBmBLQzTp5J1cA/TzBHi2qsCJQx5UCBy1Rx55SM7gToWq2kMPPSgbvU/AyMjJ+3UsJ2+CKQyATs8MSoRWhUpHs4/2xlS6+667nI/bfvnL8OUU5Wn2nNmeb7pZ2fELB3PXGZIQAEUTA0q+efWAWgZMsJ/L/EDTs6gGzU8TT9p8NOOP/uiP7FWvfJU70jAKcJBXk8xHzBy+PHPhRRf5IhO2QAwaM4CIa4jf2PX4T9B6/CmlR57Q5phlyHFPxLpfTJ1zzz3PjlRrh5xc6YzN3nCFdTlymSA3xB14p6MBze6A1x/hktf2iZxLXqYAQ4LUEBLaj1ieEZFWPMxta5xPtBbN8BFHHuGrk9Cg9PAcd9wq2fONDvivXXml28wU7pHYv4kgR9gPAqGng29pYc6wK9kVV1zhti0j0PNkCmHbJsl7XDixOIdcExdx4pTdI8DSrC5Uk79o8SLfNRm5sffMk0+u8/e9h4HWBgb0LqYAACWi0087zR1YtNb1Mj2+ftXX7be//a1XkhVy3vE/INJlaR49OWGfoFGkaFk/fDz7Z0prtrW32TU/uMauvvqb3lNUr2dnnnGml2kozpovs2TdMBUL/jHlMJMwEemZuerrX7dvf/tb/hUXZMLKrDAFJYA4ihNfBLnjE1AmVCKUChWIrzmijFAQu1MQLvtZfvOb37Bvfetqu+qqq7ys3QzxAhuhgL8wWBZmCQQzHDM3gjto+YJipiUMWj2MmYyNa08U1twWQxfULulPEikRmPfEAkhjujTP9EzQnNLV+PznP8+7LWfKWeTjBzhcLBin6wqHFQ2A9sNpY08YB4ki45tHaCXWw+IwQvMFcHqlwhpNTJUpqhAr7dzzzvMuRdbfduhgR7GFC+c7TxQKSwoBL37BZl3PmDHdHdcTTzzBFghM23dsd/MJfjnjlC4RGDAfsGHpLqTw4JG1u7Nmz0pMMhWmTBjs5GPkmLLHJfbzjp3bnffj5JxS6QEoZsfyFcs9/y4q/QfPU6ZMDWac5EmLxzJMKvExxx7jadPjRbchji7dlJ4u2luZ4x0q6WYBlryzZyhAokeIjzqzphcADg4Mejx0kbL9Hr1J5JNF+Ozbg4w7Oju87PCZiIPOB3wclApgRAaYUFTGsOtEwSst3bOsdw7Fz/86xBjpMnDqpN+A3s04ryNh8JSwrlwOgPZ/ze0EEjWVmhycEjYRCqOBeOqYO3TfoSkREjWdwkebNDepKZYmwJmi0DFlcKjQAMEsYKvwQe9ixE7GxKCwCUerQZce8WGbNtQ3OjAQLvYjgONLJ4ycwhvvICQcKUwH1hnTzGIOoLXRnt3d7E2pewIMeeE+GhnbG2XGLs+uRfXcNb+IMJgFxIVmZZeBUJgm/nqU1wGBulXPwlYm3T3del98KS8+fuIhg6JgHgrxk3Ns8vq6eucLgABoiFYg5DnrZgx5RhbEhxKhJwpe8H3w8XDqqTiYSjj0VGbKgYpJdyf+BQoH5xKCX/gk36RL+RGWA77gj/KLJhOE0kL5UPaUI/mi5YAvzENkSj55n/KDZ+IeSzzdfzrwNbfPhMQr7JJJmkxACiA4AAQOIAJyRzQBA8DkHReEHEIoCoECcxpeeYMNGK4Iw3OPMxEsMXGPMHxOZzySe+w8oGmwI+GTOHw7bQEo2u2AiDQwbdCYHqmzpf90nZJGd+eZv8iv/rzXIelxIF5aIipXeDVoPAVz4sR9+PdJYAIJaYf4PWZ/FigJnfzGpAFADQIgsiV89N8AsqdD5MnrUV78hC8qlvs+uofs+O2veDjO/hb/ubwoQypAzFMomyTyPRCtLyPv9NzRksCjX1MhVMGC05qsp/Co9h7fvtCmTVvs/wc5R8XMLBHWAgAAAABJRU5ErkJggg==;" vertex="1" parent="3VkYzJ0TTYjZr1VSYqyL-3">
          <mxGeometry x="75.06" y="114" width="64.94" height="54" as="geometry" />
        </mxCell>
        <mxCell id="3VkYzJ0TTYjZr1VSYqyL-13" value="Prod-Account" style="points=[[0,0],[0.25,0],[0.5,0],[0.75,0],[1,0],[1,0.25],[1,0.5],[1,0.75],[1,1],[0.75,1],[0.5,1],[0.25,1],[0,1],[0,0.75],[0,0.5],[0,0.25]];outlineConnect=0;gradientColor=none;html=1;whiteSpace=wrap;fontSize=12;fontStyle=0;container=1;pointerEvents=0;collapsible=0;recursiveResize=0;shape=mxgraph.aws4.group;grIcon=mxgraph.aws4.group_aws_cloud_alt;strokeColor=#232F3E;fillColor=none;verticalAlign=top;align=left;spacingLeft=30;fontColor=#232F3E;dashed=0;" vertex="1" parent="1">
          <mxGeometry x="550" y="90" width="170" height="180" as="geometry" />
        </mxCell>
        <mxCell id="3VkYzJ0TTYjZr1VSYqyL-14" value="Virtual private&#xa;cloud" style="sketch=0;outlineConnect=0;fontColor=#232F3E;gradientColor=none;strokeColor=#232F3E;fillColor=#ffffff;dashed=0;verticalLabelPosition=bottom;verticalAlign=top;align=center;html=1;fontSize=12;fontStyle=0;aspect=fixed;shape=mxgraph.aws4.resourceIcon;resIcon=mxgraph.aws4.virtual_private_cloud;" vertex="1" parent="3VkYzJ0TTYjZr1VSYqyL-13">
          <mxGeometry x="110" y="13" width="50" height="50" as="geometry" />
        </mxCell>
        <mxCell id="3VkYzJ0TTYjZr1VSYqyL-15" value="Test-Account" style="points=[[0,0],[0.25,0],[0.5,0],[0.75,0],[1,0],[1,0.25],[1,0.5],[1,0.75],[1,1],[0.75,1],[0.5,1],[0.25,1],[0,1],[0,0.75],[0,0.5],[0,0.25]];outlineConnect=0;gradientColor=none;html=1;whiteSpace=wrap;fontSize=12;fontStyle=0;container=1;pointerEvents=0;collapsible=0;recursiveResize=0;shape=mxgraph.aws4.group;grIcon=mxgraph.aws4.group_aws_cloud_alt;strokeColor=#232F3E;fillColor=none;verticalAlign=top;align=left;spacingLeft=30;fontColor=#232F3E;dashed=0;" vertex="1" parent="1">
          <mxGeometry x="470" y="137" width="170" height="190" as="geometry" />
        </mxCell>
        <mxCell id="3VkYzJ0TTYjZr1VSYqyL-16" value="Virtual private&#xa;cloud" style="sketch=0;outlineConnect=0;fontColor=#232F3E;gradientColor=none;strokeColor=#232F3E;fillColor=#ffffff;dashed=0;verticalLabelPosition=bottom;verticalAlign=top;align=center;html=1;fontSize=12;fontStyle=0;aspect=fixed;shape=mxgraph.aws4.resourceIcon;resIcon=mxgraph.aws4.virtual_private_cloud;" vertex="1" parent="3VkYzJ0TTYjZr1VSYqyL-15">
          <mxGeometry x="110" width="60" height="60" as="geometry" />
        </mxCell>
        <mxCell id="3VkYzJ0TTYjZr1VSYqyL-17" style="rounded=0;orthogonalLoop=1;jettySize=auto;html=1;flowAnimation=1;dashed=1;strokeWidth=2;strokeColor=#080808;" edge="1" parent="1" source="3VkYzJ0TTYjZr1VSYqyL-23">
          <mxGeometry relative="1" as="geometry">
            <mxPoint x="400" y="197" as="sourcePoint" />
            <mxPoint x="210" y="226.00285714285712" as="targetPoint" />
            <Array as="points">
              <mxPoint x="400" y="227" />
            </Array>
          </mxGeometry>
        </mxCell>
        <mxCell id="3VkYzJ0TTYjZr1VSYqyL-18" value="" style="sketch=0;outlineConnect=0;fontColor=#232F3E;gradientColor=none;fillColor=#DD344C;strokeColor=none;dashed=0;verticalLabelPosition=bottom;verticalAlign=top;align=center;html=1;fontSize=12;fontStyle=0;aspect=fixed;pointerEvents=1;shape=mxgraph.aws4.identity_access_management_iam_roles_anywhere;" vertex="1" parent="1">
          <mxGeometry x="290" y="239" width="78" height="78" as="geometry" />
        </mxCell>
        <mxCell id="3VkYzJ0TTYjZr1VSYqyL-19" value="I AM Assume Role" style="text;strokeColor=none;align=center;fillColor=none;html=1;verticalAlign=middle;whiteSpace=wrap;rounded=0;" vertex="1" parent="1">
          <mxGeometry x="336" y="247" width="60" height="30" as="geometry" />
        </mxCell>
        <mxCell id="3VkYzJ0TTYjZr1VSYqyL-20" value="" style="edgeStyle=orthogonalEdgeStyle;html=1;endArrow=block;elbow=vertical;startArrow=block;startFill=1;endFill=1;strokeColor=#080808;rounded=0;flowAnimation=1;dashed=1;strokeWidth=2;" edge="1" parent="1" source="3VkYzJ0TTYjZr1VSYqyL-2" target="3VkYzJ0TTYjZr1VSYqyL-18">
          <mxGeometry width="100" relative="1" as="geometry">
            <mxPoint x="220" y="257" as="sourcePoint" />
            <mxPoint x="252" y="254" as="targetPoint" />
            <Array as="points">
              <mxPoint x="270" y="272" />
              <mxPoint x="270" y="272" />
            </Array>
          </mxGeometry>
        </mxCell>
        <mxCell id="3VkYzJ0TTYjZr1VSYqyL-21" value="" style="edgeStyle=orthogonalEdgeStyle;html=1;endArrow=block;elbow=vertical;startArrow=block;startFill=1;endFill=1;strokeColor=#080808;rounded=0;flowAnimation=1;dashed=1;strokeWidth=2;" edge="1" parent="1">
          <mxGeometry width="100" relative="1" as="geometry">
            <mxPoint x="356.82" y="287" as="sourcePoint" />
            <mxPoint x="400" y="287" as="targetPoint" />
          </mxGeometry>
        </mxCell>
        <mxCell id="3VkYzJ0TTYjZr1VSYqyL-22" value="&lt;font style=&quot;font-size: 14px;&quot; face=&quot;Comic Sans MS&quot;&gt;&lt;b&gt;&lt;i&gt;Terraform Import&lt;/i&gt;&lt;/b&gt;&lt;/font&gt;" style="text;strokeColor=none;align=center;fillColor=none;html=1;verticalAlign=middle;whiteSpace=wrap;rounded=0;" vertex="1" parent="1">
          <mxGeometry x="268" y="367" width="100" height="30" as="geometry" />
        </mxCell>
        <mxCell id="3VkYzJ0TTYjZr1VSYqyL-23" value="Dev-Account" style="points=[[0,0],[0.25,0],[0.5,0],[0.75,0],[1,0],[1,0.25],[1,0.5],[1,0.75],[1,1],[0.75,1],[0.5,1],[0.25,1],[0,1],[0,0.75],[0,0.5],[0,0.25]];outlineConnect=0;gradientColor=none;html=1;whiteSpace=wrap;fontSize=12;fontStyle=0;container=1;pointerEvents=0;collapsible=0;recursiveResize=0;shape=mxgraph.aws4.group;grIcon=mxgraph.aws4.group_aws_cloud_alt;strokeColor=#232F3E;fillColor=none;verticalAlign=top;align=left;spacingLeft=30;fontColor=#232F3E;dashed=0;" vertex="1" parent="1">
          <mxGeometry x="400" y="197" width="180" height="180" as="geometry" />
        </mxCell>
        <mxCell id="3VkYzJ0TTYjZr1VSYqyL-24" value="Virtual private&#xa;cloud" style="sketch=0;outlineConnect=0;fontColor=#232F3E;gradientColor=none;strokeColor=#232F3E;fillColor=#ffffff;dashed=0;verticalLabelPosition=bottom;verticalAlign=top;align=center;html=1;fontSize=12;fontStyle=0;aspect=fixed;shape=mxgraph.aws4.resourceIcon;resIcon=mxgraph.aws4.virtual_private_cloud;" vertex="1" parent="3VkYzJ0TTYjZr1VSYqyL-23">
          <mxGeometry x="110" y="10" width="55" height="55" as="geometry" />
        </mxCell>
        <mxCell id="3VkYzJ0TTYjZr1VSYqyL-25" value="&lt;font style=&quot;font-size: 14px;&quot; face=&quot;Comic Sans MS&quot;&gt;&lt;b&gt;&lt;i&gt;Terraform state Export&lt;/i&gt;&lt;/b&gt;&lt;/font&gt;" style="text;strokeColor=none;align=center;fillColor=none;html=1;verticalAlign=middle;whiteSpace=wrap;rounded=0;" vertex="1" parent="1">
          <mxGeometry x="250" y="187" width="110" height="30" as="geometry" />
        </mxCell>
        <mxCell id="3VkYzJ0TTYjZr1VSYqyL-26" value="&lt;font face=&quot;Times New Roman&quot; style=&quot;font-size: 18px;&quot;&gt;&lt;u style=&quot;&quot;&gt;&lt;i style=&quot;&quot;&gt;&lt;b style=&quot;&quot;&gt;TERRA-AUTO Architecture&lt;/b&gt;&lt;/i&gt;&lt;/u&gt;&lt;/font&gt;" style="text;strokeColor=none;align=center;fillColor=none;html=1;verticalAlign=middle;whiteSpace=wrap;rounded=0;" vertex="1" parent="1">
          <mxGeometry x="242" y="74" width="217" height="30" as="geometry" />
        </mxCell>
      </root>
    </mxGraphModel>
  </diagram>
</mxfile>
